<?xml version="1.0" encoding="utf-8"?>
<!-- Generator: Adobe Illustrator 22.1.0, SVG Export Plug-In . SVG Version: 6.00 Build 0)  -->
<svg version="1.1" id="Calque_1" xmlns:sketch="http://www.bohemiancoding.com/sketch/ns"
	 xmlns="http://www.w3.org/2000/svg" xmlns:xlink="http://www.w3.org/1999/xlink" x="0px" y="0px" viewBox="0 0 100 82.5"
	 style="enable-background:new 0 0 100 82.5;" xml:space="preserve">
<style type="text/css">
	.st0{fill:#8DD7FC;}
</style>
<title>eye-fill 119</title>
<desc>Created with Sketch.</desc>
<g sketch:type="MSPage">
	<path sketch:type="MSShapeGroup" class="st0" d="M55.2,35.6c-0.4-0.7-1.4-0.9-2.1-0.5c-0.7,0.4-1,1.4-0.5,2.1
		c3,4.9,4.5,8.9,4.5,11.6c0,2.5-1.1,4.9-3.1,6.5c-0.7,0.5-0.8,1.5-0.2,2.2c0.3,0.4,0.7,0.6,1.2,0.6c0.3,0,0.7-0.1,1-0.3
		c2.7-2.2,4.3-5.4,4.3-8.9C60.1,45.5,58.5,41.1,55.2,35.6 M49.7,64.5c-8.1,0-14.7-6.6-14.7-14.7C35,38.2,45.9,24,49.6,19.5
		c3.6,4.9,14.8,20.7,14.8,30.3C64.4,57.9,57.8,64.5,49.7,64.5 M50.9,16.1c-0.3-0.4-0.7-0.6-1.2-0.6c-0.4,0-0.9,0.2-1.2,0.5
		c-0.7,0.8-16.6,18.7-16.6,33.8c0,9.8,8,17.8,17.8,17.8c9.8,0,17.8-8,17.8-17.8C67.4,37.3,51.5,17,50.9,16.1"/>
</g>
</svg>
