<?xml version="1.0" encoding="utf-8"?>
<!-- Generator: Adobe Illustrator 22.1.0, SVG Export Plug-In . SVG Version: 6.00 Build 0)  -->
<svg version="1.1" id="Calque_1" xmlns="http://www.w3.org/2000/svg" xmlns:xlink="http://www.w3.org/1999/xlink" x="0px" y="0px"
	 viewBox="0 0 100 100" style="enable-background:new 0 0 100 100;" xml:space="preserve">
<style type="text/css">
	.st0{fill:#FFFFFF;}
</style>
<g>
	<path class="st0" d="M51.9,84.9c0-5.7-4.6-10.3-10.3-10.3s-10.3,4.6-10.3,10.3c0,5.6,4.6,10.2,10.2,10.3
		c5.7,0.1,10.3-4.5,10.4-10.2C51.9,85,51.9,84.9,51.9,84.9z M37.3,84.9c0-2.4,1.9-4.3,4.3-4.3s4.3,1.9,4.3,4.3s-1.9,4.3-4.3,4.3
		c-2.4,0.1-4.3-1.8-4.4-4.2v-0.1C37.2,84.9,37.3,84.9,37.3,84.9z"/>
	<path class="st0" d="M86,84.9c0-5.7-4.6-10.3-10.3-10.3c-5.7,0-10.3,4.6-10.3,10.3c0,5.7,4.6,10.3,10.3,10.3l0,0
		C81.4,95.2,86,90.6,86,84.9z M71.4,84.9c0-2.4,1.9-4.3,4.3-4.3s4.3,1.9,4.3,4.3s-1.9,4.3-4.3,4.3S71.4,87.3,71.4,84.9L71.4,84.9z"
		/>
	<path class="st0" d="M91,18.1H26.6l-0.2-1c-0.8-4.7-4.5-8.4-9.3-9.1L9.4,6.8C7.8,6.4,6.2,7.3,5.7,8.9s0.5,3.2,2.1,3.7
		c0.2,0.1,0.4,0.1,0.6,0.1l7.7,1.1c2.2,0.3,3.9,2,4.2,4.2l6.8,43c0.9,6.3,6.4,11,12.8,11h46.2c1.7,0,3-1.3,3-3s-1.3-3-3-3h-46
		c-3.4,0-6.4-2.5-6.9-5.9l-0.3-1.9h44.4c6.4,0,11.9-4.7,12.9-11L94,21.6c0.2-1.6-0.9-3.2-2.6-3.4c-0.1,0-0.3,0-0.4,0V18.1z
		 M84.2,46.3c-0.5,3.4-3.4,6-6.9,6H31.9l-4.4-28.2h60L84.2,46.3z"/>
</g>
</svg>
