<?xml version="1.0" encoding="utf-8"?>
<!-- Generator: Adobe Illustrator 22.1.0, SVG Export Plug-In . SVG Version: 6.00 Build 0)  -->
<svg version="1.1" id="Calque_1" xmlns="http://www.w3.org/2000/svg" xmlns:xlink="http://www.w3.org/1999/xlink" x="0px" y="0px"
	 viewBox="0 0 100 100" style="enable-background:new 0 0 100 100;" xml:space="preserve">
<style type="text/css">
	.st0{fill:none;stroke:#22292E;stroke-width:2;stroke-linecap:round;stroke-linejoin:round;stroke-miterlimit:10;}
</style>
<circle class="st0" cx="80.7" cy="74.6" r="11.4"/>
<circle class="st0" cx="26.8" cy="74.6" r="11.4"/>
<circle class="st0" cx="26.6" cy="74.8" r="5.2"/>
<circle class="st0" cx="80.5" cy="74.8" r="5.2"/>
<path class="st0" d="M81.6,63.1h12.5c0,0-0.7-7.4-6.1-8.1h-8.7V33.5c0,0-10.8-1.3-10.8,4.7c0,0,3.4,2.7,3.4,4c0,1.3-1.3,3.4-1.3,3.4
	l0.2,22.5l-2.2,1.7H43.7l-7.4-6.7H16.7c0,0-2.7-1.3-2.7-4s-0.7-4.7,3.4-4.7h18.8l2.7,2h18.8c0,0,4.7,3.4,0,6.7H35.9"/>
<line class="st0" x1="59.1" y1="69.9" x2="59.1" y2="61.9"/>
<path class="st0" d="M66.2,69.8l-0.3-12.1c0,0-1.4-6-8.6-6.6c0,0-2.1,0.7-3.6-1.3l0.3-4.4c2,0-1.5,1.3-1.7-7.7"/>
<line class="st0" x1="54.1" y1="45.3" x2="71" y2="45"/>
<path class="st0" d="M69.3,38.9l-11.5,0v-6.7l-1.3-2.7c0,0-5.4,0.7-7.4,0c-2-0.7-7.4,2.7-6.7,12.8s2,12.1,5,14.1"/>
<path class="st0" d="M56.4,29.5c0,0,4-2,4-5.4H46.3c0,0-0.4,4,2,5.4"/>
<path class="st0" d="M57.9,28.6c0,0-1.4-0.4-2.8-1.8"/>
<path class="st0" d="M79.3,41.6c0.7,3.3,6.7,2.7,6.7,2.7v-8.7c0,0-6.7-1.6-6.7,3.2"/>
<line class="st0" x1="69.3" y1="75.3" x2="38.3" y2="75.3"/>
<path class="st0" d="M36.3,54.4V25.4H8v24.2c0,0,0,5.4,6.7,5.4"/>
<line class="st0" x1="36.3" y1="30.8" x2="8" y2="30.8"/>
<line class="st0" x1="32.2" y1="36.9" x2="17.4" y2="36.9"/>
<line class="st0" x1="32.2" y1="41.6" x2="23.5" y2="41.6"/>
<line class="st0" x1="32.2" y1="47.7" x2="26.8" y2="47.7"/>
<path class="st0" d="M44.7,23.8h16.8c0,0,0.7-3.2-2.5-6.1c-4.6-4.2-10.5-2.7-12.7,0C45,19.2,44.5,20.2,44.7,23.8z"/>
</svg>
