<?xml version="1.0" encoding="utf-8"?>
<!-- Generator: Adobe Illustrator 22.1.0, SVG Export Plug-In . SVG Version: 6.00 Build 0)  -->
<svg version="1.1" id="Calque_1" xmlns="http://www.w3.org/2000/svg" xmlns:xlink="http://www.w3.org/1999/xlink" x="0px" y="0px"
	 viewBox="0 0 201.7 154.4" style="enable-background:new 0 0 201.7 154.4;" xml:space="preserve">
<style type="text/css">
	.st0{fill:#555D61;}
</style>
<path class="st0" d="M40.1,111.7c-8,0-14.5,6.5-14.5,14.5s6.5,14.5,14.5,14.5s14.5-6.5,14.5-14.5S48.2,111.7,40.1,111.7z
	 M40.1,134.9c-4.8,0-8.7-3.9-8.7-8.7s3.9-8.7,8.7-8.7s8.7,3.9,8.7,8.7S45,134.9,40.1,134.9z"/>
<path class="st0" d="M150.6,140.7c8,0,14.5-6.5,14.5-14.5s-6.5-14.5-14.5-14.5s-14.5,6.5-14.5,14.5S142.6,140.7,150.6,140.7z
	 M150.6,117.5c4.8,0,8.7,3.9,8.7,8.7s-3.9,8.7-8.7,8.7s-8.7-3.9-8.7-8.7S145.8,117.5,150.6,117.5z"/>
<path class="st0" d="M188.4,24.4h-58.2c-1.6,0-2.9,1.3-2.9,2.9V39v45.3l-4.1,4.1h-7.8c3.8-3.7,6.1-8.8,6.1-14.5V53.5
	c0-9.1-5.9-16.7-14.1-19.4c2.7-2.5,4.5-5.9,5.2-9.7h0.3c1.6,0,2.9-1.3,2.9-2.9c0-11.2-9.1-20.4-20.4-20.4S75,10.3,75,21.5
	c0,1.6,1.3,2.9,2.9,2.9h0.3c0.9,5.5,4.4,10.1,9.2,12.6l-2.8,2.8c-0.5,0.5-0.9,1.3-0.9,2.1v11.6H68.9c-1.4-6.6-7.2-11.6-14.2-11.6
	h-2.9V30.3H46v11.6h-2.9c-1.6,0-2.9,1.3-2.9,2.9v1.6c-1.7-1-3.7-1.6-5.8-1.6h-5.8c-1.6,0-2.9,1.3-2.9,2.9v17.4
	c0,1.6,1.3,2.9,2.9,2.9h5.8c2.1,0,4.1-0.6,5.8-1.6v19.1H28.5c-9.6,0-17.4,7.8-17.4,17.4c0,1.6,1.3,2.9,2.9,2.9h9.8
	c-5.9,4.8-9.8,12.1-9.8,20.4c0,14.4,11.7,26.2,26.2,26.2c12.4,0,22.8-8.7,25.5-20.4H125c2.7,11.6,13.1,20.4,25.5,20.4
	c10.2,0,19.1-5.9,23.4-14.5h14.6c1.6,0,2.9-1.3,2.9-2.9v-11.6c0-1.6-1.3-2.9-2.9-2.9H176c-1.3-5.8-4.6-10.9-9.1-14.5h1.3
	c2.2,0,4.1-0.6,5.9-1.6l9.5,9.5l4.1-4.1l-9.5-9.5c1-1.7,1.6-3.7,1.6-5.9c0-2.2-0.6-4.2-1.7-5.9c7.4-0.6,13.3-6.8,13.3-14.4V39V27.4
	C191.3,25.7,190,24.4,188.4,24.4z M133.2,30.3h52.3v5.8h-52.3V30.3z M95.4,7c7,0,12.9,5,14.2,11.6H81.1C82.5,12,88.4,7,95.4,7z
	 M106.6,24.4c-1.3,5-5.9,8.7-11.3,8.7c-0.7,0-1.4-0.1-2.1-0.2c1.3-1.5,2.1-3.5,2.1-5.6h-5.8c0,1.3-0.9,2.3-2,2.7
	c-1.6-1.5-2.9-3.4-3.4-5.6C84.1,24.4,106.6,24.4,106.6,24.4z M86.7,59.3c1.6,0,2.9-1.3,2.9-2.9V43.1l4.1-4.1h7.5
	c8,0,14.5,6.5,14.5,14.5v20.4c0,8-6.5,14.5-14.5,14.5H89.6c-4.8,0-8.7,3.9-8.7,8.7v17.4H75V97.1c0-8,6.5-14.5,14.5-14.5h2.9
	c1.6,0,2.9-1.3,2.9-2.9v-9.3c3.4-1.2,5.8-4.4,5.8-8.2V50.6h-5.8v11.6c0,1.6-1.3,2.9-2.9,2.9h-29c-1.6,0-2.9-1.3-2.9-2.9
	s1.3-2.9,2.9-2.9C63.4,59.3,86.7,59.3,86.7,59.3z M86.7,105.3c0.9,0.3,1.9,0.5,2.9,0.5h33.7l-8.7,8.7H86.7V105.3z M66.3,114.6
	c-1.6,0-2.9-1.3-2.9-2.9V71h26.2v5.8c-11.2,0-20.4,9.1-20.4,20.4v17.4H66.3z M34.3,62.2h-2.9V50.6h2.9c3.2,0,5.8,2.6,5.8,5.8
	C40.1,59.6,37.5,62.2,34.3,62.2z M17.2,100c1.3-5,5.9-8.7,11.3-8.7H43c1.6,0,2.9-1.3,2.9-2.9V47.7h8.7c3.8,0,7,2.5,8.2,5.9
	c-4.6,0.3-8.2,4-8.2,8.7c0,2.6,1.1,4.9,2.9,6.5v38.1c-4.6-4.2-10.7-6.7-17.4-6.7H17.2V100z M40.1,146.6c-11.2,0-20.4-9.1-20.4-20.4
	c0-11.2,9.1-20.4,20.4-20.4s20.4,9.1,20.4,20.4C60.5,137.4,51.4,146.6,40.1,146.6z M66.3,126.2c0-2-0.3-4-0.7-5.9
	c0.2,0,0.5,0.1,0.7,0.1h5.8h11.6h32c0.8,0,1.5-0.3,2.1-0.9l13.7-13.7h2.5c-5.9,4.8-9.8,12.1-9.8,20.4L66.3,126.2L66.3,126.2z
	 M185.5,126.2v5.8h-9.6c0.4-1.9,0.7-3.8,0.7-5.8H185.5z M170.7,126.2c0,11.2-9.1,20.4-20.4,20.4c-11.2,0-20.4-9.1-20.4-20.4
	c0-11.2,9.1-20.4,20.4-20.4C161.6,105.9,170.7,115,170.7,126.2z M89.6,100c-1.6,0-2.9-1.3-2.9-2.9s1.3-2.9,2.9-2.9h11.6h23.3
	c0.8,0,1.5-0.3,2.1-0.9l5-5h36.6c3.2,0,5.8,2.6,5.8,5.8c0,3.2-2.6,5.8-5.8,5.8L89.6,100L89.6,100z M185.5,73.9
	c0,4.8-3.9,8.7-8.7,8.7h-8.7h-34.9V41.9h52.3L185.5,73.9L185.5,73.9z"/>
<rect x="139" y="71" class="st0" width="14.5" height="5.8"/>
<rect x="139" y="59.3" class="st0" width="23.3" height="5.8"/>
<rect x="139" y="47.7" class="st0" width="34.9" height="5.8"/>
<rect x="115.7" y="1.2" class="st0" width="26.2" height="5.8"/>
<rect x="147.7" y="1.2" class="st0" width="5.8" height="5.8"/>
<rect x="159.4" y="1.2" class="st0" width="5.8" height="5.8"/>
<rect x="171" y="1.2" class="st0" width="5.8" height="5.8"/>
<rect x="127.4" y="12.8" class="st0" width="26.2" height="5.8"/>
<rect x="159.4" y="12.8" class="st0" width="5.8" height="5.8"/>
<rect x="171" y="12.8" class="st0" width="5.8" height="5.8"/>
<rect x="182.6" y="12.8" class="st0" width="5.8" height="5.8"/>
</svg>
