<?xml version="1.0" encoding="utf-8"?>
<!-- Generator: Adobe Illustrator 22.1.0, SVG Export Plug-In . SVG Version: 6.00 Build 0)  -->
<svg version="1.1" id="Capa_1" xmlns="http://www.w3.org/2000/svg" xmlns:xlink="http://www.w3.org/1999/xlink" x="0px" y="0px"
	 viewBox="0 0 100 82.5" style="enable-background:new 0 0 100 82.5;" xml:space="preserve">
<style type="text/css">
	.st0{fill:#2FA2F7;}
</style>
<g>
	<g>
		<path class="st0" d="M88.1,46.8c-2.4-2.6-10-8-15.3-6.8c-2.7-4.2-5.8-7.4-9.2-9.8l1.8-6.1l4.8,2.8c0.2,0.1,0.5,0.2,0.7,0.2
			c0.3,0,0.6-0.1,0.8-0.3c0.5-0.3,0.7-0.9,0.5-1.5L67.3,6.1c-0.1-0.5-0.5-0.9-1-1c-0.5-0.1-1,0-1.4,0.3L50.3,18.8
			c-0.4,0.4-0.6,1-0.4,1.5c0.2,0.5,0.7,0.9,1.2,0.9l5.7,0.4l-1.5,4.9c-3.5-0.9-7.4-1.2-11.8-0.9c-0.5-2.7,1.3-9.2,3.6-14.1
			c0.2-0.5,0.1-1.1-0.2-1.5S46,9.4,45.5,9.6c-5.1,1.5-9.2,3.8-12.3,6.7c-2.5,2.4-4.3,5.1-5.4,8.3c-1.4,4.1-1,9.3-1,9.3
			c-3.3,0.4-6.5,3.5-9.2,8.8C15.5,47.2,14,52.8,14,56.5c0,2.4,1.2,4.3,3.5,5.3c1.4,0.6,3,1,4.9,1c1.4,0,2.9-0.2,4.4-0.5
			c1.7-0.4,3.5-1,5.1-1.8c0.6,0.9,1.4,1.8,2.7,2.6c2.1,1.3,4.7,2,7.8,2c0.5,0,0.9,0,1.4,0l-3.8,12.6c-0.1,0.4,0,0.9,0.2,1.2
			c0.3,0.3,0.7,0.6,1.1,0.6H48c0.6,0,1.2-0.4,1.3-1l8.7-29.9c3.7,0.2,6.7,1.6,8.9,3.5c0.1,0.1,0.5,0.5,1.3,1.5
			c2.4,3.2,6.2,9.7,6.2,13.5c0,0.5,0.3,1,0.7,1.2c0.2,0.1,0.5,0.2,0.7,0.2s0.5-0.1,0.7-0.2c2.2-1.3,3.8-3.4,4.5-6.2
			c0.8-3,0.4-6.3-0.8-8.5c0.1-0.2,0.5-0.6,1.6-1.4c1.1-0.7,2.5-1.5,3.8-2.2c0.8-0.4,1.5-0.8,2.2-1.2c0.4-0.2,0.6-0.6,0.7-1
			C88.5,47.5,88.4,47.1,88.1,46.8z M54.6,18.7L65.2,9l3.5,13.8l-5.9-3.5c-0.2-0.1-0.4-0.2-0.6-0.2L54.6,18.7z M62.9,22.7l-1.8,6.1
			c-0.7-0.4-1.4-0.7-2.1-1c-0.3-0.1-0.6-0.3-0.9-0.4l1.7-5.6l1.8,0.1L62.9,22.7z M30.6,25.4c1.9-5.4,6.2-9.4,12.8-12.1
			c-0.7,1.7-1.4,3.8-1.9,5.9c-0.7,2.9-0.9,5.2-0.7,6.8c-5.2,0.9-8.9,3.1-11.2,5.1C29.6,29.5,29.8,27.5,30.6,25.4z M36.2,60.9
			c-0.8-0.5-1.4-1.1-1.8-1.6c1-0.6,1.9-1.3,2.8-2c1.5-1.2,2.9-2.3,4.3-3.2c0.6,1.4,1.8,2.9,3.8,4.5c0.2,0.1,0.3,0.3,0.5,0.4l-1,3.2
			C40.4,62.6,37.8,61.8,36.2,60.9z M43.9,52.6c1.5-0.9,3-1.6,4.4-2.2L46.7,56C45.2,54.7,44.2,53.4,43.9,52.6z M47,76.7h-3.6L54.8,39
			l1.8-0.6l1.2,1.3L47,76.7z M68.8,50c-2.5-2.2-5.9-3.8-9.9-4.2l1.8-6.2c0.1-0.5,0-1-0.3-1.4L58,35.8c-0.4-0.4-0.9-0.5-1.5-0.4
			l-3.4,1.1c-0.4,0.1-0.8,0.5-0.9,0.9l-2.9,9.5c-4,1.3-8.4,3.6-13,7.3c0.1-0.3,0.1-0.7,0.2-1.1c0.7-4.4-0.5-8.4-3.5-11.5
			c-0.5-0.6-1.4-0.6-2,0c-0.6,0.5-0.6,1.4,0,2c2.4,2.5,3.3,5.5,2.8,9.1c-0.3,2.1-1.1,3.8-1.5,4.5c-5.1,2.9-10.8,3.6-13.7,2.2
			c-1.3-0.6-1.9-1.5-1.9-2.8c0-3.3,1.4-8.5,3.4-12.6c2.3-4.7,5-7.3,7.4-7.3c0.5,0,0.9-0.2,1.2-0.6c0,0,1.1-1.7,3.4-3.4
			c3.1-2.3,6.7-3.7,10.9-4.1c1.3-0.1,2.7-0.2,4.1-0.2c7.7,0,16.5,2.4,23.7,13.9c0.7,2.6,0.9,5.9-1.4,8.5
			C69.3,50.5,69.1,50.2,68.8,50z M84.3,47.7c-3.8,2.1-6.3,3.5-6.8,5.4c-0.2,0.7-0.1,1.4,0.3,2c0.8,1.3,1.3,3.9,0.6,6.5
			c-0.2,0.9-0.7,2-1.5,3c-1-4-3.7-8.7-5.7-11.5c2.6-2.6,3.5-6.2,2.6-10.4c3.1-0.4,8,2.3,10.8,4.8C84.6,47.5,84.5,47.6,84.3,47.7z"/>
	</g>
</g>
<circle class="st0" cx="25.2" cy="48.7" r="1.7"/>
</svg>
