<?xml version="1.0" encoding="utf-8"?>
<!-- Generator: Adobe Illustrator 22.1.0, SVG Export Plug-In . SVG Version: 6.00 Build 0)  -->
<svg version="1.1" id="Calque_1" xmlns="http://www.w3.org/2000/svg" xmlns:xlink="http://www.w3.org/1999/xlink" x="0px" y="0px"
	 viewBox="0 0 45.3 49.7" style="enable-background:new 0 0 45.3 49.7;" xml:space="preserve">
<style type="text/css">
	.st0{fill:#53E093;}
</style>
<title>Group 19</title>
<desc>Created with Sketch.</desc>
<g>
	<g transform="translate(-1080.000000, -416.000000)">
		<g transform="translate(1079.000000, 416.000000)">
			<path class="st0" d="M40.6,7.3L37,10.9l-1.5-1.5l3.6-3.5l0.7,0.7L40.6,7.3z M27.7,23.3h-8.2l5.7-5.7l1.5,1.5
				c0.1,0.1,0.4,0.2,0.5,0.2c0.1,0,0.4-0.1,0.5-0.2c0.3-0.3,0.3-0.7,0-1l-1.5-1.5l1-1l1.5,1.5c0.1,0.1,0.4,0.2,0.5,0.2
				c0.1,0,0.4-0.1,0.5-0.2c0.3-0.3,0.3-0.7,0-1l-1.5-1.5l1-1l1.5,1.5c0.1,0.1,0.4,0.2,0.5,0.2c0.2,0,0.4-0.1,0.5-0.2
				c0.3-0.3,0.3-0.7,0-1l-1.4-1.6l1-1l1.5,1.5c0.1,0.1,0.4,0.2,0.5,0.2c0.2,0,0.4-0.1,0.5-0.2c0.3-0.3,0.3-0.7,0-1l-1.5-1.5l1-1
				l0.5,0.5l0,0l2.5,2.5l0,0l1,1L27.7,23.3z M17.1,33.9l-2-2l-1-1l0,0l-1-1l5.1-5.1h8.2L17.1,33.9z M14.5,33.4l-2,2h-0.1l-0.9-0.9
				v-0.1l2-2l0.5,0.5L14.5,33.4z M43.5,8.1l-2.8-2.8l-1.1-1.1l0,0l-1-1c-0.3-0.3-0.7-0.3-1,0c-0.3,0.3-0.3,0.7,0,1l0.5,0.5l-3.6,3.6
				l-0.5-0.5l-1-1c-0.3-0.3-0.7-0.3-1,0c-0.3,0.3-0.3,0.7,0,1l0.5,0.5l-3.6,3.5l0,0l0,0l-2,2l0,0l0,0l-9.5,9.6c0,0,0,0-0.1,0.1
				l-5.8,5.8c-0.3,0.3-0.3,0.7,0,1l1,1l-2,2C10.2,33.7,10,34,10,34.5c0,0.4,0.1,0.7,0.4,1l-9.2,9c-0.3,0.3-0.3,0.7,0,1
				c0.1,0.1,0.3,0.2,0.5,0.2s0.4-0.1,0.5-0.2l9.2-9c0.3,0.3,0.7,0.4,1,0.4c0.4,0,0.8-0.1,1.1-0.4l2-2l1,1c0.1,0.1,0.3,0.2,0.5,0.2
				s0.4-0.1,0.5-0.2l21-21l0.5,0.5c0.1,0.1,0.4,0.2,0.5,0.2c0.2,0,0.4-0.1,0.5-0.2c0.3-0.3,0.3-0.7,0-1l-1-1l-1-1l3.6-3.5l0.9,0.9
				c0.1,0.1,0.4,0.2,0.5,0.2c0.2,0,0.4-0.1,0.5-0.2C43.8,8.9,43.8,8.4,43.5,8.1L43.5,8.1z"/>
		</g>
	</g>
</g>
</svg>
