<?xml version="1.0" encoding="utf-8"?>
<!-- Generator: Adobe Illustrator 22.1.0, SVG Export Plug-In . SVG Version: 6.00 Build 0)  -->
<svg version="1.1" id="Calque_1" xmlns="http://www.w3.org/2000/svg" xmlns:xlink="http://www.w3.org/1999/xlink" x="0px" y="0px"
	 viewBox="0 0 79.7 73.3" style="enable-background:new 0 0 79.7 73.3;" xml:space="preserve">
<style type="text/css">
	.st0{fill:#53E093;}
</style>
<title>103all</title>
<path class="st0" d="M6.9,30.8c0.1,0.8,0.8,1.5,1.6,1.5c0.8-0.1,1.5-0.8,1.5-1.6c-0.3-5,1.5-9.9,4.9-13.5c3.2-3.2,7.5-5.1,12-5.1
	c3.5,0,7.5,2.2,11.9,6.5c0.7,0.7,1.8,0.7,2.4,0c3.5-3.6,8.4-5.7,13.4-5.8h0.2c3.9,0,7.7,1.5,10.4,4.4c6.6,6.9,6.6,17.9,0,24.7
	L40.4,65.8c-0.2,0.2-0.7,0.2-0.9,0L22.6,49.5c-0.6-0.6-1.6-0.5-2.2,0c-0.6,0.6-0.5,1.6,0,2.2l0,0L37.4,68c1.5,1.4,3.8,1.4,5.2,0
	l24.9-23.9c7.8-8.1,7.8-20.9,0-29.1c-3.3-3.4-7.9-5.3-12.6-5.3c-5.5,0-10.8,2.1-14.8,5.8C35.4,11.2,31,9,26.9,9
	c-5.4,0-10.5,2.2-14.2,6C8.6,19.2,6.5,24.9,6.9,30.8z"/>
<path class="st0" d="M17.3,43.2c0.5,0,1-0.3,1.3-0.8l2.5-4.1l3.4,5.5c0.5,0.7,1.4,0.9,2.2,0.5c0.3-0.2,0.5-0.5,0.6-0.8l4.5-11.5
	l4.2,16.4c0.2,0.6,0.7,1.1,1.3,1.2h0.2c0.5,0,1.1-0.3,1.4-0.8l5.2-9.9l1.9,3.5c0.3,0.5,0.8,0.8,1.3,0.8h7.2c0.8,0,1.5-0.7,1.5-1.5
	s-0.7-1.5-1.5-1.5h-6.2l-2.9-5.2c-0.3-0.5-0.8-0.8-1.3-0.8l0,0c-0.6,0-1.2,0.4-1.4,0.9l-4.6,8.8l-4.2-17.2c-0.2-0.8-1.1-1.3-1.8-1.1
	c-0.5,0.2-0.8,0.5-1.1,0.9l-5.2,13.2l-3.1-4.9c-0.3-0.5-0.8-0.7-1.3-0.7l0,0c-0.5,0-1,0.3-1.3,0.8l-3.4,5.5h-5.5
	c-0.8,0-1.5,0.7-1.5,1.5s0.7,1.5,1.5,1.5L17.3,43.2z"/>
</svg>
