<?xml version="1.0" encoding="utf-8"?>
<!-- Generator: Adobe Illustrator 22.1.0, SVG Export Plug-In . SVG Version: 6.00 Build 0)  -->
<svg version="1.1" id="Calque_1" xmlns="http://www.w3.org/2000/svg" xmlns:xlink="http://www.w3.org/1999/xlink" x="0px" y="0px"
	 viewBox="0 0 103 110" style="enable-background:new 0 0 103 110;" xml:space="preserve">
<style type="text/css">
	.st0{fill:#53E093;}
</style>
<g>
	<g>
		<path class="st0" d="M55,102c-0.2,0-0.5,0-0.7,0c-3.2-0.2-6.2-1.2-8.8-3.2c-0.5-0.3-1.1-0.3-1.5,0c-2.7,2-5.6,3-8.8,3.2
			C22.2,102.6,9.6,86.9,7,67.1C5.5,54.7,8,43.2,14,36.2c3.4-4,7.6-6.2,12.3-6.4c5.6-0.2,11.4,2.6,16.3,7.8c0.6,0.6,1.4,1,2.3,1
			c0.8,0,1.7-0.4,2.3-1c4.9-5.3,10.7-8,16.3-7.8C74.9,30.3,83.2,43.3,83,60.6c0,0.8-0.7,1.5-1.5,1.5l0,0c-0.8,0-1.5-0.7-1.5-1.5
			c0.2-15.6-6.8-27.3-16.7-27.8c-4.7-0.2-9.6,2.3-14,6.8c-1.1,1.2-2.8,2-4.4,2s-3.3-0.7-4.4-2c-4.3-4.7-9.3-7.1-14-6.8
			c-3.8,0.2-7.3,2-10.1,5.3c-5.4,6.4-7.7,17-6.2,28.5C12.4,85,23.6,99.5,35,99c2.6-0.1,5-1,7.1-2.6c1.5-1.1,3.5-1.1,5,0
			c2.2,1.6,4.6,2.5,7.1,2.6c7.8,0.3,16.1-6.7,21.1-17.9c0.3-0.8,1.2-1.1,2-0.8c0.8,0.3,1.1,1.2,0.8,2C72.8,94.5,63.9,102,55,102z"/>
	</g>
	<g>
		<path class="st0" d="M44.7,41.7c-0.8,0-1.4-0.5-1.5-1.3c0-0.2-2.6-20.8,17.4-26.7c0.8-0.2,1.7,0.2,1.9,1.1
			c0.2,0.8-0.2,1.7-1.1,1.9c-17.5,5-15.3,22.6-15.3,23.3c0.1,0.8-0.5,1.6-1.3,1.7C44.8,41.7,44.7,41.7,44.7,41.7z"/>
	</g>
	<g>
		<path class="st0" d="M45.6,32.3C32.1,32.3,21.2,21.4,21.2,8c0-0.8,0.7-1.5,1.5-1.5C36.1,6.5,47,17.4,47,30.8
			C47.1,31.6,46.4,32.3,45.6,32.3z M24.3,9.6c0.8,10.5,9.2,19,19.7,19.7C43.2,18.8,34.8,10.3,24.3,9.6z"/>
	</g>
	<g>
		<path class="st0" d="M76.8,83.2L76.8,83.2C76.7,83.2,76.7,83.2,76.8,83.2L76.8,83.2c-0.2,0-0.2,0-0.2,0c-10.5-1.5-21.2-5-31.5-8.4
			c-12.1-4-24.6-8.1-36.9-8.9c-0.8-0.1-1.4-0.6-1.4-1.4c-0.6-8.2,0.5-16,3.3-22.1c0.3-0.6,0.9-1,1.5-0.9c11.6,1.3,23.2,5,34.5,8.8
			c11.7,3.8,23.7,7.7,35.4,8.8c0.1,0,0.1,0,0.2,0H99c0.8,0,1.5,0.7,1.5,1.5v21.1c0,0.8-0.7,1.5-1.5,1.5H76.8L76.8,83.2z M76.9,80.2
			h20.5V62.2h-16c-0.2,0-0.4,0-0.5-0.1c-12-1.1-24.1-5-35.8-8.9c-10.8-3.5-21.8-7.1-32.6-8.5C10.4,49.9,9.4,56.3,9.8,63
			c12.2,1,24.4,5,36.3,9C56.2,75.3,66.6,78.7,76.9,80.2z"/>
	</g>
	<g>
		<path class="st0" d="M15.5,65.9c-0.5,0-0.8-0.3-0.8-0.8v-6.8c0-0.5,0.3-0.8,0.8-0.8c0.5,0,0.8,0.3,0.8,0.8v6.8
			C16.2,65.6,15.9,65.9,15.5,65.9z"/>
	</g>
	<g>
		<path class="st0" d="M24.1,67.7c-0.5,0-0.8-0.3-0.8-0.8v-12c0-0.5,0.3-0.8,0.8-0.8c0.5,0,0.8,0.3,0.8,0.8v12
			C24.8,67.4,24.5,67.7,24.1,67.7z"/>
	</g>
	<g>
		<path class="st0" d="M32.6,70c-0.5,0-0.8-0.3-0.8-0.8v-6.8c0-0.5,0.3-0.8,0.8-0.8s0.8,0.3,0.8,0.8v6.8C33.4,69.7,33.1,70,32.6,70z
			"/>
	</g>
	<g>
		<path class="st0" d="M41.2,72.7c-0.5,0-0.8-0.3-0.8-0.8v-12c0-0.5,0.3-0.8,0.8-0.8s0.8,0.3,0.8,0.8v12
			C42,72.4,41.7,72.7,41.2,72.7z"/>
	</g>
	<g>
		<path class="st0" d="M49.9,75.6c-0.5,0-0.8-0.3-0.8-0.8V68c0-0.5,0.3-0.8,0.8-0.8s0.8,0.3,0.8,0.8v6.8
			C50.6,75.2,50.2,75.6,49.9,75.6z"/>
	</g>
	<g>
		<path class="st0" d="M58.4,78.2c-0.5,0-0.8-0.3-0.8-0.8v-12c0-0.5,0.3-0.8,0.8-0.8s0.8,0.3,0.8,0.8v12
			C59.2,77.9,58.8,78.2,58.4,78.2z"/>
	</g>
	<g>
		<path class="st0" d="M67,80.5c-0.5,0-0.8-0.3-0.8-0.8v-6.8c0-0.5,0.3-0.8,0.8-0.8s0.8,0.3,0.8,0.8v6.8
			C67.8,80.2,67.5,80.5,67,80.5z"/>
	</g>
	<g>
		<path class="st0" d="M75.6,82.3c-0.5,0-0.8-0.3-0.8-0.8v-12c0-0.5,0.3-0.8,0.8-0.8s0.8,0.3,0.8,0.8v12C76.3,82,76,82.3,75.6,82.3z
			"/>
	</g>
	<g>
		<path class="st0" d="M83.9,82.5c-0.5,0-0.8-0.3-0.8-0.8V75c0-0.5,0.3-0.8,0.8-0.8s0.8,0.3,0.8,0.8v6.7
			C84.6,82.1,84.2,82.5,83.9,82.5z"/>
	</g>
	<g>
		<path class="st0" d="M92.4,82.5c-0.5,0-0.8-0.3-0.8-0.8V70c0-0.5,0.3-0.8,0.8-0.8s0.8,0.3,0.8,0.8v11.7
			C93.2,82.1,92.8,82.5,92.4,82.5z"/>
	</g>
</g>
</svg>
