<?xml version="1.0" encoding="utf-8"?>
<!-- Generator: Adobe Illustrator 22.1.0, SVG Export Plug-In . SVG Version: 6.00 Build 0)  -->
<svg version="1.1" id="Calque_1" xmlns="http://www.w3.org/2000/svg" xmlns:xlink="http://www.w3.org/1999/xlink" x="0px" y="0px"
	 viewBox="0 0 124.7 76.5" style="enable-background:new 0 0 124.7 76.5;" xml:space="preserve">
<style type="text/css">
	.st0{fill:#53E093;}
</style>
<path class="st0" d="M112.2,31.3h-2.6v-2.6c0-4.3-3.5-7.8-7.8-7.8c-0.9,0-1.8,0.1-2.6,0.5V21c0-4.3-3.5-7.8-7.8-7.8
	s-7.8,3.5-7.8,7.8v10.4H42.3V21c0-4.3-3.5-7.8-7.8-7.8s-7.8,3.5-7.8,7.8v0.5C25.9,21.2,25,21,24.1,21c-4.3,0-7.8,3.5-7.8,7.8v2.6
	h-2.6c-4.3,0-7.8,3.5-7.8,7.8s3.5,7.8,7.8,7.8h2.6v2.6c0,4.3,3.5,7.8,7.8,7.8c0.9,0,1.8-0.1,2.6-0.5v0.5c0,4.3,3.5,7.8,7.8,7.8
	s7.8-3.5,7.8-7.8V46.9h41.5v10.4c0,4.3,3.5,7.8,7.8,7.8s7.8-3.5,7.8-7.8v-0.5c0.8,0.3,1.7,0.5,2.6,0.5c4.3,0,7.8-3.5,7.8-7.8v-2.6
	h2.6c4.3,0,7.8-3.5,7.8-7.8S116.5,31.3,112.2,31.3z M13.8,41.7c-1.4,0-2.6-1.2-2.6-2.6c0-1.4,1.2-2.6,2.6-2.6h2.6v5.2H13.8z
	 M24.1,52.1c-1.4,0-2.6-1.2-2.6-2.6V28.7c0-1.4,1.2-2.6,2.6-2.6c1.4,0,2.6,1.2,2.6,2.6v20.7C26.7,50.9,25.6,52.1,24.1,52.1z
	 M37.1,57.2c0,1.4-1.2,2.6-2.6,2.6s-2.6-1.2-2.6-2.6V21c0-1.4,1.2-2.6,2.6-2.6s2.6,1.2,2.6,2.6V57.2z M42.3,41.7v-5.2h41.5v5.2H42.3
	z M94.1,57.2c0,1.4-1.2,2.6-2.6,2.6s-2.6-1.2-2.6-2.6V21c0-1.4,1.2-2.6,2.6-2.6s2.6,1.2,2.6,2.6V57.2z M104.5,49.5
	c0,1.4-1.2,2.6-2.6,2.6c-1.4,0-2.6-1.2-2.6-2.6V28.7c0-1.4,1.2-2.6,2.6-2.6c1.4,0,2.6,1.2,2.6,2.6V49.5z M112.2,41.7h-2.6v-5.2h2.6
	c1.4,0,2.6,1.2,2.6,2.6C114.8,40.5,113.7,41.7,112.2,41.7z"/>
</svg>
