<?xml version="1.0" encoding="utf-8"?>
<!-- Generator: Adobe Illustrator 22.1.0, SVG Export Plug-In . SVG Version: 6.00 Build 0)  -->
<svg version="1.1" id="Calque_1" xmlns="http://www.w3.org/2000/svg" xmlns:xlink="http://www.w3.org/1999/xlink" x="0px" y="0px"
	 viewBox="0 0 100 82.5" style="enable-background:new 0 0 100 82.5;" xml:space="preserve">
<style type="text/css">
	.st0{fill:none;}
	.st1{fill:#FF7900;}
</style>
<g>
	<g>
		<path class="st0" d="M32.7,55.1c-0.4-0.6-0.7-1.3-1.1-1.9c-0.1,0-0.1,0.1-0.2,0.1c-0.3,0.2-0.4,0.5-0.7,0.7
			c-0.5,0.4-1.1,0.6-1.6,0.9c-0.5,0.3-0.9,0.9-1.5,1.2c-0.6,0.3-1.2,0.6-1.8,0.7c-0.4,0.1-1-0.5-0.6-0.9c0.5-0.4,1-0.8,1.6-1.1
			c0.6-0.3,1.2-0.5,1.8-0.9c0.5-0.3,1-0.8,1.5-1.1c0.3-0.1,0.7-0.3,1.1-0.3c-0.1-0.1-0.1-0.2-0.2-0.3c-0.6,0.3-1.3,0.5-1.9,0.9
			c-0.7,0.4-1.4,0.7-2.1,1.1c-0.7,0.4-1.3,0.9-2,1.3s-1.5,0.6-2.2,1c-0.7,0.4-1.5,0.6-2.2,1c-0.7,0.4-1.3,0.9-2.1,1.2
			c-0.7,0.3-1.1,0-1.4-0.6c0,0,0.1,0,0.1,0c-0.4-0.8-1.1-1.5-1.9-2c-0.8-0.6-1.6-1-2.5-1.1c-0.9-0.1-1.9,0.1-2.7,0.6
			c-0.8,0.5-1.5,1.2-1.9,2.1C8,58.6,8,59.4,8.2,60.2C8.3,61,8.5,61.9,9,62.5c0.5,0.7,1.3,1,2,1.4c0.6,0.3,1.1,0.7,1.4,1.3
			c0.4,0.7,0.1,1.6,0,2.4c-0.1,0.8,0.1,1.6,0.4,2.3c0.3,0.7,0.8,1.4,1.3,1.9c0.6,0.5,1.2,0.9,2,1.1c0.8,0.2,1.6,0.3,2.3,0.1
			c0.7-0.2,1.3-0.8,1.9-1.3c0.6-0.5,1.1-1.1,1.4-1.8c0.3-0.9,0.3-1.8,0.2-2.7c-0.1-0.9-0.3-1.8-0.8-2.6c-0.1-0.2-0.4-0.4-0.4-0.6
			c0-0.3,0.4-0.6,0.6-0.7c0.7-0.4,1.5-0.7,2.2-1.1c0.7-0.4,1.3-1.1,2-1.5c0.7-0.4,1.4-0.8,2.1-1.3c0.7-0.4,1.5-0.8,2.2-1.2
			c0.7-0.4,1.3-1,2-1.4c0.5-0.3,1-0.5,1.5-0.7C33.1,55.7,32.9,55.4,32.7,55.1z M11.2,62.2c-0.8-0.1-1.3-0.8-1.4-1.5
			C9.7,60,9.6,59.1,10,58.5c0.3-0.5,1.1-0.8,1.7-1c0.6-0.2,1.2-0.2,1.8,0.3c0.2,0.2,0.3,0.6,0,0.7c-0.4,0.1-0.8,0.2-1.2,0.4
			c-0.3,0.2-0.7,0.3-0.8,0.5c0,0.1,0.1,0.3,0.1,0.4c0,0-0.3,0-0.3,0.1c0,0,0.2,0.1,0.2,0.1c0,0.1-0.1,0.2-0.1,0.3
			c0,0-0.1,0.2-0.1,0.3c0,0,0,0.1,0,0.1c0,0,0.1,0.1,0.2,0.2c0,0.1,0.2,0.2,0.2,0.3c0,0.2-0.1,0.5-0.1,0.7
			C11.7,62.2,11.5,62.2,11.2,62.2z"/>
		<path class="st0" d="M83.2,31.5c-0.2-0.7-0.4-1.5-0.7-2.2c-0.3-0.7-0.5-1.5-0.8-2.2c-0.3-0.7-0.6-1.4-0.9-2.2
			c-0.2-0.5-0.5-1-0.8-1.5c-0.3-0.6-0.6-1.3-1.4-1.3c-1,0-1,1.2-0.7,2.4c0.3,1,0.9,2.1,1.1,2.6c0.3,0.6,0.5,1.3,0.9,1.9
			c0.3,0.6,0.8,1.1,1.2,1.7c0.4,0.6,0.7,1.2,1.1,1.8c0.2,0.3,0.3,0.7,0.6,0.8c0.1,0,0.1-0.2,0.2-0.2C83.7,33.1,83.3,31.8,83.2,31.5z
			"/>
		<path class="st0" d="M91.3,42.5c0-0.9,0-1.8-0.2-2.5c-0.1-0.9-0.5-1.7-0.7-2.5c-0.2-0.8-0.4-1.7-0.7-2.5c-0.3-0.8-0.6-1.6-0.9-2.5
			c-0.3-0.8-0.6-1.7-0.9-2.5c-0.3-0.7-0.5-1.4-0.9-2.2c-0.3-0.7-0.8-1.3-1.1-2.1c-0.3-0.7-0.4-1.5-0.8-2.3c-0.4-0.7-0.9-1.3-1.3-2
			c-0.4-0.7-0.6-1.5-1-2.2c-0.4-0.7-1-1.3-1.4-1.9c-0.5-0.6-1-1.3-1.5-1.9c-0.5-0.6-1.2-1.1-1.8-1.6c-0.6-0.5-1.2-1-1.9-1.4
			c-0.7-0.4-1.4-0.8-2.2-1c-0.8-0.2-1.6-0.1-2.4-0.1c-1,0.1-1.8,0.4-2.4,0.7c-0.7,0.5-1.3,1.1-1.6,1.9c-0.3,0.7-0.1,1.6-0.1,2.5
			c0,0.8,0.1,1.6,0.3,2.5c0.2,0.8,0.4,1.6,0.7,2.4c0.3,0.8,0.7,1.5,1,2.3c0.3,0.8,0.7,1.5,1.1,2.2c0.4,0.8,0.6,1.6,1,2.3
			c0.4,0.8,0.8,1.5,1.2,2.2c0.5,0.8,1.1,1.4,1.5,2c0.6,0.9,1,1.6,1.3,2.1c0.4,0.5,0.9,1.2,1.4,1.9c0.4,0.6,0.8,1.3,1.3,2
			c0.4,0.6,0.9,1.3,1.4,2c0.5,0.6,1,1.3,1.5,1.9c0.5,0.6,1,1.2,1.6,1.8c0.6,0.6,1.4,0.9,2,1.2c0.7,0.4,1.4,1,2.1,1.1
			c0.8,0.1,1.6-0.1,2.3-0.4c0.6-0.2,1.2-0.5,1.6-1.2C91.3,44.3,91.3,43.4,91.3,42.5z M71.7,15.6c-0.5,0.1-0.6-0.4-0.2-0.6
			c0.5-0.3,1.1-0.7,1.7-0.7c0.5,0,0.6,0.5,0.2,0.8C72.9,15.4,72.2,15.5,71.7,15.6z M76.5,17c-0.4,0.1-0.8,0-1.2,0.1
			c-0.4,0.1-0.7,0.3-1,0.5c-0.3,0.2-0.6,0.4-0.8,0.6c-0.3,0.3-0.7,0.5-1,0.8c-0.2,0.2-0.4,0.1-0.6,0c-0.2-0.1-0.5-0.3-0.4-0.5
			c0.3-1,1.3-1.9,2.2-2.3c0.9-0.4,2-0.5,2.9-0.1C77.1,16.4,76.9,17,76.5,17z M82.9,35.4c-0.7-0.1-1.2-0.7-1.7-1.2
			c-0.5-0.5-0.8-1.2-1.1-1.7c-0.4-0.6-0.8-1.2-1.2-1.8c-0.4-0.6-0.8-1.2-1.1-1.9c-0.4-0.6-0.8-1.2-1.1-1.9c-0.3-0.7-0.6-1.3-0.9-2
			c-0.3-0.6-0.6-1.2-0.7-1.8c-0.1-0.6-0.2-1.4,0-2c0.3-0.6,0.9-1,1.5-1.3c0.6-0.3,1.3-0.4,1.9-0.2c0.7,0.2,1.3,0.6,1.8,1
			c0.5,0.4,0.8,1,1.2,1.7c0.4,0.7,0.8,1.4,1.1,2.1c0.3,0.7,0.6,1.3,0.9,1.9c0.3,0.7,0.5,1.3,0.7,2c0.2,0.7,0.6,1.3,0.9,2
			c0.2,0.6,0.4,1.3,0.5,2c0.1,0.8-0.3,1.5-0.8,2.1C84.4,35,83.8,35.5,82.9,35.4z M82.3,37.3c-0.2-0.2-0.1-0.4,0.2-0.3
			c0.7,0.1,1.4,0.1,2-0.1c0.5-0.1,0.8,0.4,0.4,0.7C84.1,38.2,83,38,82.3,37.3z M87.4,43.5c-0.6,0.2-1.3,0.3-1.9,0.3
			c-0.7-0.1-1.2-0.5-1.8-0.8c-0.7-0.4-1.8-0.8-2.2-1.6c-0.3-0.7,0.4-1.6,1.2-1.3c0.3,0.1,0.6,0.4,0.9,0.6c0.6,0.4,1.1,0.8,1.8,1.2
			c0,0,0.2,0.1,0.1,0.1c0.1,0,0.1,0.1,0.1,0.2c0.1,0,0.2,0.1,0.3,0.1c0.3,0,0.6-0.2,0.8-0.2c0.6-0.1,1.1-0.3,1.4-0.8
			c0.4-0.6,0.6-1.3,0.9-2c0.1-0.3,0.5-0.1,0.5,0.2c-0.1,0.8,0,1.7-0.5,2.4C88.7,42.6,88.1,43.2,87.4,43.5z"/>
		<path class="st0" d="M82.2,46c-0.7-0.6-1.3-1.3-2-1.9c-0.6-0.7-1.2-1.4-1.8-2.1c-0.5-0.6-0.9-1.3-1.4-1.9
			c-0.5-0.6-1.1-1.2-1.6-1.8c-0.5-0.6-1-1.3-1.4-1.9c-0.4-0.7-0.8-1.4-1.2-2c-0.4-0.7-1-1.3-1.4-2c-0.4-0.7-0.8-1.4-1.1-2.1
			c-0.4-0.7-0.6-1.5-0.9-2.2c-0.3-0.7-0.8-1.4-1.2-2.1c-0.3-0.7-0.5-1.5-0.7-2.3c-0.3-0.8-0.5-1.7-0.8-2.5s-0.5-1.7-0.7-2.5
			c-0.2-0.9-0.4-1.7-0.5-2.6c-0.1-0.9-0.1-1.8,0.1-2.6c0-0.2,0-0.5,0.1-0.7c-0.6,0.3-1.3,0.6-1.9,0.9c-0.1,0.4-0.3,0.8-0.3,1.2
			c-0.1,0.5,0,1.1,0,1.7c0,0.5-0.1,1-0.1,1.6c0,0.1,0.1,0.3,0.1,0.4c0,0,0,0,0,0c0,0.1,0.1,0.1,0.1,0.2c0,0.2-0.1,0.5-0.1,0.8
			c0.1,1.1,0.6,2.1,0.8,3.2c0.1,0.5,0.2,1.2,0.4,1.6c0.2,0.6,0.3,1.3,0.5,1.9c0.2,0.6,0.4,1.2,0.6,1.7c0.1,0.3,0.3,0.5,0.4,0.8
			c0.1,0.3,0.2,0.6,0.3,0.9c0.1,0.4-0.6,0.8-0.8,0.4c-0.2-0.3-0.3-0.7-0.5-1.1c-0.2-0.3-0.5-0.5-0.6-0.8c-0.4-0.7-0.7-1.4-1.1-2
			c-0.4-0.7-0.7-1.4-1-2.2c-0.3-0.7-0.4-1.5-0.5-2.3c-0.2-0.8-0.3-1.5-0.4-2.3C61,18,61,16.9,61.2,15.7c0.1-0.3,0.1-0.6,0.2-0.9
			c-0.7,0.3-1.4,0.5-2.1,0.9c-0.7,0.4-1.3,0.8-2,1.2c0,0,0,0,0,0c0.2,0.3,0.4,0.5,0.4,0.8c0.1,0.5-0.2,1-0.1,1.5
			c0.2,0.9,0.6,1.7,0.9,2.5c0,0.1-0.2,0.3-0.2,0.4c0,0,0.3-0.1,0.3-0.1c0,0.1-0.2,0.2-0.2,0.2c0,0.1,0.1,0.2,0.1,0.4
			c0,0,0,0.1,0,0.1c0,0,0.2,0,0.3,0c0.1,0.4,0.1,0.9,0.2,1.3c0.3,0.8,0.7,1.6,1.1,2.4c0.2,0.4,0.3,0.7,0.5,1.1
			c0.1,0.2,0.3,0.3,0.5,0.5c0.2,0.2,0.1,0.5,0.1,0.8c0.1,0.3-0.1,0.5-0.4,0.4C60.5,29,60.3,29,60,28.7c-0.2-0.2-0.2-0.5-0.4-0.7
			c-0.3-0.4-0.6-0.7-0.9-1.1c-0.6-0.8-1.3-1.4-1.7-2.2c-0.4-0.9-0.7-1.8-1-2.8c-0.2-0.9-0.3-1.8-0.3-2.7c0-0.4-0.1-0.8,0-1.2
			c-0.1,0.1-0.2,0.1-0.3,0.2c-0.6,0.4-1.4,0.6-2,0.9c-0.5,0.3-1,0.6-1.5,0.9c0.1,0.2,0.2,0.5,0.3,0.7c0.1,0.4,0.2,0.7,0.3,1.1
			c0.2,0.7,0.3,1.5,0.6,2.3c0.2,0.7,0.6,1.3,0.8,1.9c0.2,0.6,0.5,1.3,0.6,2c0.1,0.3,0.4,0.7,0.4,1c0,0.4-0.6,0.6-0.9,0.4
			c-0.5-0.4-0.8-1.1-1.2-1.7c-0.4-0.6-0.8-1.2-1-1.8c-0.3-0.6-0.6-1.3-0.8-2c-0.2-0.7-0.2-1.4-0.4-2.1c-0.1-0.3-0.1-0.5-0.1-0.8
			c-0.3,0.2-0.5,0.5-0.8,0.6c-0.6,0.4-1.3,0.7-1.9,1.2c-0.2,0.2-0.5,0.3-0.7,0.5c0.1,0.5,0.1,1,0.2,1.6c0.1,0.6,0.3,1.2,0.5,1.8
			c0.2,0.6,0.4,1.3,0.7,1.9c0.3,0.6,1,1.3,0.8,2c-0.1,0.3-0.4,0.2-0.7,0.2c-0.8-0.1-1.3-1-1.7-1.7c-0.3-0.6-0.7-1.3-0.9-2
			c-0.2-0.8-0.3-1.5-0.4-2.3c0-0.2,0-0.4,0-0.7c-0.5,0.4-1,0.9-1.6,1.3c-0.5,0.4-1.1,0.7-1.7,1c0.1,0.4,0.3,0.9,0.4,1.3
			c0.2,0.6,0.5,1.1,0.7,1.6c0.2,0.6,0.5,1.1,0.8,1.6c0,0,0.1,0,0.1,0c0,0,0,0,0,0c0.1,0.1,0.1,0.2,0.1,0.3c0.1,0.1,0,0.4,0,0.5
			c0.1,0.1,0.4,0.2,0.4,0.3c0,0.1,0,0.2,0,0.3c0,0.2,0,0.5-0.1,0.6c0,0.1-0.1,0.1-0.2,0.2c-0.4,0.2-0.8,0-1.1-0.3
			c-0.3-0.3-0.7-0.5-0.9-0.8c-0.4-0.6-0.6-1.2-0.9-1.9c-0.3-0.7-0.4-1.4-0.5-2.1c0-0.3-0.1-0.6-0.1-0.8c-0.5,0.4-0.9,0.8-1.4,1.2
			c-0.5,0.4-0.9,0.9-1.4,1.4c0.2,0.8,0.3,1.7,0.5,2.6c0.1,0.3,0.3,0.5,0.3,0.7c0,0.1-0.1,0.2-0.1,0.3c0,0,0.1,0.1,0.1,0.1
			c0,0.1,0.3,0.1,0.3,0.1c0.1,0.5,0.1,1,0.3,1.4c0.4,0.9,0.8,1.8,1.3,2.6c0,0.1,0.2,0.1,0.2,0.2c0,0-0.2,0.1-0.1,0.2
			c0,0,0.1,0.1,0.1,0.1c0,0,0.2,0,0.2,0.1c0.1,0.2,0.1,0.5,0.3,0.7c0.3,0.4,0.8,0.7,1,1.1c0.3,0.4,0.5,0.8,0.8,1.2
			c0.3,0.4,0.5,0.8,0.8,1.2c0.2,0.4-0.1,0.8-0.5,0.6c-0.6-0.3-1.1-0.6-1.5-1c-0.5-0.4-1.1-0.7-1.5-1.1c-0.4-0.5-0.7-1.2-1.1-1.8
			c-0.4-0.6-0.9-1-1.2-1.6c-0.3-0.6-0.5-1.3-0.8-1.9c-0.4-1-0.4-2-0.6-3.1c-0.1-0.3-0.1-0.7-0.2-1c-0.2,0.3-0.5,0.6-0.7,0.9
			c-0.6,0.7-1.1,1.3-1.6,2.1c0,0.1-0.1,0.1-0.2,0.2c0.1,0.3,0.2,0.6,0.3,0.9c0.3,0.8,0.4,1.6,0.8,2.4c0.4,0.8,0.8,1.4,1.3,2
			c0.2,0.3,0.5,0.6,0.8,1c0.3,0.4,0.4,0.9,0.5,1.3c0.1,0.6-0.4,0.9-0.9,0.8c-0.4-0.1-0.8-0.7-1.1-1.1c-0.3-0.4-0.6-0.7-0.8-1.1
			c-0.5-0.8-0.9-1.6-1.3-2.4c-0.3-0.7-0.5-1.3-0.7-2c0,0.1-0.1,0.1-0.1,0.2c-0.4,0.8-0.7,1.7-1,2.6c-0.1,0.2-0.4,0.4-0.4,0.6
			c0,0.1,0.2,0.2,0.2,0.2c0,0,0,0,0,0.1c0,0-0.2,0-0.2,0c0,0.1,0,0.1,0,0.2c0,0,0,0,0,0c0.1,0.3,0.2,0.6,0.3,0.9
			c0.2,0.6,0.3,1.3,0.6,1.9c0.3,0.6,0.8,1.2,1.1,1.7c0.3,0.6,0.9,1.3,0.8,2c0,0.3-0.4,0.7-0.7,0.6c-0.8-0.2-1.2-1.2-1.6-1.8
			c-0.3-0.6-0.5-1.3-0.7-1.9c-0.1-0.1-0.1-0.3-0.1-0.4c-0.1,0.1-0.2,0.3-0.2,0.4c0,0.1,0,0.3,0,0.4c0,0,0.2,0.1,0.2,0.2
			c0,0.9,0,1.8,0.1,2.7c0,0.2-0.1,0.5,0,0.8c0,0,0.1,0,0.1,0.1c0,0,0,0,0,0.1c0,0.1,0.1,0.2,0.2,0.3c0.1,0.4,0.3,0.9,0.4,1.3
			c0.2,0.4,0.4,0.8,0.6,1.2c0.1,0.2,0.2,0.4,0.3,0.6c0,0,0,0.1,0,0.2c0.1,0.1,0.1,0.3,0.1,0.4c0.5,0.8,0.9,1.6,1.5,2.3
			c0.2,0.2,0.4,0.3,0.5,0.5c0.1,0.1,0.3,0.1,0.3,0.1c0,0,0,0.1,0.1,0.2c0,0,0,0.1,0,0.1c0,0,0,0.1,0,0.1c0,0,0,0,0,0
			c0,0,0.2-0.1,0.3-0.1c0.1,0.1,0.1,0.2,0.1,0.3c0.2,0.2,0.3,0.4,0.5,0.5c0.7,0.6,1.5,1.1,2.3,1.6c0.2,0.1,0.4,0.2,0.6,0.3
			c0,0-0.1,0.2,0,0.2c0,0,0,0,0,0c0.1,0.1,0.3,0,0.4,0c0.4,0.2,0.8,0.5,1.2,0.7c0.8,0.4,1.8,0.7,2.6,1c0.2,0.1,0.4,0.2,0.6,0.3
			c0,0,0.1,0.1,0.1,0.1c0.1,0,0.2,0.1,0.4,0.1c0.4,0.1,0.9,0.3,1.3,0.4c0.9,0.2,1.9,0.1,2.8,0.2c0.5,0,0.9,0.3,1.4,0.4
			c0.2,0,0.5-0.2,0.7-0.2c0,0,0,0.2,0,0.2c0.1,0,0.1-0.1,0.2-0.1c0.1,0,0.2,0.1,0.3,0.1c0.9,0,1.8-0.2,2.8-0.3
			c0.9-0.1,1.9-0.1,2.8-0.3c1-0.2,2-0.4,3-0.6c0.2-0.1,0.5,0,0.7-0.1c-0.1-0.4-0.1-0.9-0.1-1.3c0-1.1,0.1-2.2,0.7-3
			c0.5-0.8,1.5-1.1,2.3-1.3c0.8-0.3,1.7-0.5,2.6-0.3c0.3-0.7,0.9-1.1,1.4-1.6c0.5-0.5,1-1,1.6-1.2c0.6-0.3,1.3-0.5,2-0.5
			c0.7-0.1,1.4-0.1,2,0.1c0.7,0.2,1.4,0.6,2,1.1c0.6,0.5,1.1,1.1,1.5,1.7c0.4-0.2,0.8-0.5,1.2-0.7c0.7-0.4,1.3-0.8,1.9-1.2
			c0.7-0.4,1.4-0.7,2-1c0.7-0.4,1.4-0.6,2.1-1c0.7-0.4,1.3-0.9,1.9-1.3c-0.7-0.2-1.5-0.4-2.1-0.9C83.3,47.1,82.8,46.5,82.2,46z"/>
		<path class="st1" d="M84.9,34.4c0.5-0.6,0.8-1.3,0.8-2.1c-0.1-0.7-0.3-1.4-0.5-2c-0.2-0.7-0.6-1.3-0.9-2c-0.2-0.7-0.4-1.4-0.7-2
			c-0.3-0.7-0.6-1.3-0.9-1.9c-0.3-0.7-0.8-1.4-1.1-2.1c-0.3-0.7-0.6-1.3-1.2-1.7c-0.5-0.4-1.1-0.8-1.8-1c-0.7-0.2-1.3-0.1-1.9,0.2
			c-0.6,0.3-1.2,0.7-1.5,1.3c-0.3,0.6-0.2,1.3,0,2c0.1,0.6,0.4,1.2,0.7,1.8c0.3,0.7,0.6,1.3,0.9,2c0.3,0.7,0.7,1.3,1.1,1.9
			c0.4,0.6,0.7,1.2,1.1,1.9c0.4,0.6,0.8,1.2,1.2,1.8c0.4,0.5,0.7,1.2,1.1,1.7c0.5,0.5,1,1.1,1.7,1.2C83.8,35.5,84.4,35,84.9,34.4z
			 M82.7,33.2c-0.3-0.1-0.4-0.5-0.6-0.8c-0.4-0.6-0.8-1.2-1.1-1.8c-0.4-0.6-0.9-1.1-1.2-1.7c-0.3-0.6-0.6-1.3-0.9-1.9
			c-0.2-0.4-0.8-1.5-1.1-2.6c-0.3-1.2-0.3-2.4,0.7-2.4c0.8,0,1.1,0.7,1.4,1.3c0.3,0.5,0.6,1,0.8,1.5c0.3,0.7,0.6,1.4,0.9,2.2
			c0.3,0.7,0.6,1.5,0.8,2.2c0.3,0.7,0.5,1.5,0.7,2.2c0.1,0.4,0.5,1.6-0.3,1.6C82.8,33.1,82.8,33.2,82.7,33.2z"/>
		<path class="st1" d="M92.1,47c0.6-0.7,1-1.4,1.2-2.3c0.2-0.8,0.3-1.7,0.2-2.6c-0.1-0.9-0.4-1.7-0.5-2.6c-0.2-0.9-0.4-1.8-0.6-2.6
			c-0.2-0.9-0.5-1.7-0.7-2.5c-0.2-0.8-0.3-1.7-0.5-2.6c-0.3-0.8-0.8-1.5-1.1-2.3c-0.3-0.8-0.4-1.7-0.7-2.5c-0.4-0.8-0.9-1.5-1.3-2.2
			c-0.4-0.8-0.8-1.5-1.2-2.3c-0.4-0.7-0.8-1.5-1.3-2.2c-0.5-0.7-1-1.4-1.4-2.1c-0.5-0.7-1-1.4-1.5-2.1c-0.5-0.7-1.2-1.2-1.8-1.8
			c-0.6-0.7-1.2-1.4-1.8-2c-0.7-0.6-1.5-1.1-2.2-1.6c-0.7-0.5-1.5-1.1-2.3-1.4c-0.8-0.3-1.7-0.4-2.7-0.5c-0.7-0.1-1.4-0.3-2-0.2
			c-0.1,0-0.2,0.2-0.4,0.3c-0.7,0.3-1.4,0.5-2.1,0.8s-1.4,0.6-2.1,0.9c-0.7,0.3-1.4,0.6-2.1,0.9c-0.7,0.3-1.4,0.6-2.1,1
			c-0.7,0.3-1.3,0.8-2,1.1s-1.4,0.7-2.1,1c-0.7,0.4-1.2,0.9-1.9,1.3s-1.3,0.7-2,1.1c-0.7,0.4-1.4,0.6-2,1c-0.6,0.4-1.3,0.8-1.9,1.3
			c-0.6,0.4-1.2,0.9-1.8,1.3c-0.6,0.4-1.3,0.8-1.9,1.2c-0.6,0.4-1.4,0.8-2,1.3c-0.6,0.5-1.1,1.1-1.8,1.6c-0.6,0.5-1.3,0.9-1.9,1.4
			c-0.6,0.5-1.3,1-1.8,1.5s-1.2,1-1.7,1.6c-0.5,0.6-1,1.3-1.5,1.9c-0.5,0.6-0.9,1.3-1.4,2c-0.5,0.7-0.9,1.3-1.3,2
			c-0.4,0.7-0.8,1.4-1.1,2.1c-0.3,0.7-0.6,1.5-0.9,2.2c-0.2,0.8-0.4,1.6-0.6,2.3c-0.1,0.8-0.2,1.6-0.2,2.4c0,0.8,0,1.6,0.1,2.4
			c0.1,0.8,0.3,1.5,0.5,2.3c0.1,0.5,0.3,1,0.5,1.5c-0.8,0.4-1.5,0.8-2.3,1.2c-0.8,0.4-1.5,0.9-2.3,1.3s-1.6,0.7-2.4,1.1
			c-0.8,0.4-1.5,1-2.2,1.4c-0.8,0.4-1.6,0.7-2.4,1.1c-0.5-0.8-1.3-1.5-2.1-2.1c-0.8-0.5-1.7-1-2.7-1.1c-0.9-0.2-1.8-0.2-2.6,0
			c-0.9,0.2-1.7,0.5-2.4,1c-0.7,0.5-1.3,1.2-1.8,2c-0.5,0.7-1,1.5-1.2,2.4c-0.2,0.8-0.1,1.8,0,2.7C6,62,6.3,62.7,6.7,63.4
			c0.4,0.7,1.1,1.2,1.7,1.7c0.6,0.5,1.3,0.9,2.1,1.2c-0.2,0.7-0.2,1.5-0.1,2.3c0.1,0.7,0.3,1.5,0.6,2.2c0.3,0.7,0.7,1.3,1.1,1.9
			c0.5,0.6,1,1.2,1.6,1.6s1.5,0.4,2.2,0.5c0.7,0.1,1.5,0.1,2.2,0c0.7-0.1,1.5-0.2,2.2-0.5c0.7-0.3,1.3-0.8,1.8-1.3
			c0.4-0.4,0.8-1,1.1-1.5c0.3-0.5,0.7-1,0.9-1.6c0.2-0.9,0.2-1.8,0.1-2.7c-0.1-0.9-0.6-1.8-1.1-2.5c0.6-0.4,1.5-0.6,2.2-1.1
			c0.6-0.4,1.2-1,1.8-1.4c0.6-0.4,1.4-0.6,2-1c0.6-0.4,1.2-1,1.8-1.4c0.6-0.4,1.4-0.6,2.1-1c0.6-0.4,1-0.9,1.5-1.3
			c0.5,0.4,1,0.7,1.4,1c0.6,0.5,1.3,0.9,1.9,1.3c0.7,0.4,1.2,1,1.9,1.4c0.7,0.4,1.4,0.7,2.2,0.9c0.7,0.3,1.5,0.3,2.3,0.5
			s1.5,0.3,2.3,0.5c0.8,0.1,1.5,0.4,2.3,0.5c0.8,0.1,1.6,0.1,2.4,0.1c0.7,0,1.4-0.2,2.1-0.3c0.7,0,1.4,0.1,2.2,0.1
			c0.7-0.1,1.4-0.3,2.1-0.4c1-0.2,1.9-0.4,2.9-0.6c1-0.2,2-0.4,3-0.5c-0.4-0.4-0.8-1.1-0.9-1.8c-0.1-0.6,0-1.3,0.1-1.9
			c0.1-0.5,0.3-0.9,0.7-1.3c0.5-0.5,1.1-0.9,1.9-0.9c0.8-0.1,1.5-0.1,2.1,0.2c-0.2-0.4,0-0.7,0.2-1.1c0.4-0.6,1-1,1.6-1.4
			c0.5-0.5,1.1-0.9,1.7-1.1c0.6-0.2,1.3-0.1,2,0.2c0.8,0.3,1.3,0.9,1.7,1.5c0.5,0.6,1,1.2,1.4,1.9c0,0,0.8-0.6,1.9-1.2
			c0.7-0.4,1.5-0.6,2.2-1c1.1-0.6,1.9-1.2,2-1.3c0.9-0.5,1.7-1.1,2.6-1.6c0.9-0.5,1.8-0.8,2.7-1.4c0.6-0.4,1.3-0.9,2-1.3
			c0.7-0.4,1.5-0.6,2-1.1C91.8,47.4,91.9,47.2,92.1,47z M31.8,56.7c-0.7,0.4-1.3,1-2,1.4c-0.7,0.4-1.5,0.8-2.2,1.2
			c-0.7,0.4-1.4,0.8-2.1,1.3c-0.7,0.4-1.3,1.1-2,1.5c-0.7,0.4-1.5,0.7-2.2,1.1c-0.2,0.2-0.6,0.4-0.6,0.7c0,0.2,0.3,0.4,0.4,0.6
			c0.5,0.8,0.7,1.7,0.8,2.6c0.1,0.9,0.1,1.8-0.2,2.7c-0.3,0.7-0.8,1.3-1.4,1.8c-0.6,0.5-1.2,1.1-1.9,1.3c-0.7,0.2-1.6,0.1-2.3-0.1
			c-0.8-0.2-1.4-0.6-2-1.1c-0.6-0.5-1-1.2-1.3-1.9c-0.3-0.7-0.5-1.5-0.4-2.3c0.1-0.8,0.4-1.7,0-2.4c-0.3-0.5-0.8-1-1.4-1.3
			c-0.7-0.4-1.5-0.7-2-1.4c-0.5-0.7-0.7-1.5-0.8-2.3C8,59.4,8,58.6,8.3,57.8c0.4-0.9,1.1-1.6,1.9-2.1c0.8-0.5,1.8-0.7,2.7-0.6
			c0.9,0.1,1.7,0.6,2.5,1.1c0.8,0.6,1.5,1.2,1.9,2c0,0-0.1,0-0.1,0c0.3,0.6,0.8,1,1.4,0.6c0.7-0.4,1.3-0.9,2.1-1.2
			c0.7-0.4,1.5-0.6,2.2-1c0.7-0.4,1.5-0.6,2.2-1c0.7-0.4,1.3-0.9,2-1.3c0.7-0.4,1.4-0.7,2.1-1.1c0.6-0.3,1.3-0.6,1.9-0.9
			c0.1,0.1,0.1,0.2,0.2,0.3c-0.4,0.1-0.8,0.2-1.1,0.3c-0.6,0.3-1,0.8-1.5,1.1c-0.6,0.3-1.2,0.5-1.8,0.9c-0.6,0.3-1.1,0.7-1.6,1.1
			c-0.4,0.3,0.2,1,0.6,0.9c0.6-0.2,1.2-0.4,1.8-0.7c0.6-0.3,1-0.9,1.5-1.2c0.5-0.3,1.1-0.5,1.6-0.9c0.3-0.2,0.4-0.5,0.7-0.7
			c0.1,0,0.1-0.1,0.2-0.1c0.3,0.6,0.6,1.3,1.1,1.9c0.2,0.3,0.5,0.6,0.7,0.9C32.9,56.3,32.3,56.4,31.8,56.7z M84.1,49.6
			c-0.7,0.4-1.4,0.6-2.1,1c-0.7,0.4-1.4,0.7-2,1c-0.7,0.4-1.3,0.9-1.9,1.2c-0.4,0.2-0.8,0.5-1.2,0.7c-0.4-0.6-0.9-1.3-1.5-1.7
			c-0.6-0.5-1.3-0.9-2-1.1c-0.7-0.2-1.4-0.1-2-0.1c-0.7,0.1-1.3,0.2-2,0.5c-0.6,0.3-1.1,0.8-1.6,1.2c-0.5,0.5-1.1,1-1.4,1.6
			c-0.9-0.2-1.7,0-2.6,0.3c-0.8,0.3-1.8,0.6-2.3,1.3c-0.6,0.9-0.8,2-0.7,3c0,0.4,0,0.9,0.1,1.3c-0.2,0.1-0.5,0-0.7,0.1
			c-0.9,0.2-1.9,0.5-3,0.6c-0.9,0.2-1.9,0.2-2.8,0.3c-0.9,0.1-1.8,0.3-2.8,0.3c-0.1,0-0.2-0.1-0.3-0.1c-0.1,0-0.1,0.1-0.2,0.1
			c0,0,0-0.2,0-0.2c-0.2,0-0.5,0.2-0.7,0.2c-0.5,0-0.9-0.3-1.4-0.4c-0.9-0.1-1.9,0-2.8-0.2c-0.4-0.1-0.9-0.3-1.3-0.4
			c-0.1,0-0.2-0.1-0.4-0.1c0,0-0.1-0.1-0.1-0.1c-0.2-0.1-0.4-0.2-0.6-0.3c-0.9-0.3-1.8-0.6-2.6-1c-0.4-0.2-0.8-0.5-1.2-0.7
			c-0.1-0.1-0.3,0-0.4,0c0,0,0,0,0,0c0,0,0.1-0.2,0-0.2c-0.2-0.1-0.4-0.2-0.6-0.3c-0.8-0.5-1.6-1-2.3-1.6c-0.2-0.2-0.3-0.4-0.5-0.5
			c-0.1-0.1-0.1-0.2-0.1-0.3c0,0-0.2,0.1-0.3,0.1c0,0,0,0,0,0c0,0,0-0.1,0-0.1c0,0,0-0.1,0-0.1c0,0,0-0.1-0.1-0.2
			c-0.1-0.1-0.3,0-0.3-0.1c-0.2-0.2-0.4-0.3-0.5-0.5c-0.6-0.7-1-1.5-1.5-2.3c-0.1-0.1-0.1-0.2-0.1-0.4c0,0,0-0.1,0-0.2
			c-0.1-0.2-0.2-0.4-0.3-0.6c-0.2-0.4-0.4-0.8-0.6-1.2c-0.2-0.4-0.3-0.9-0.4-1.3c0-0.1-0.1-0.2-0.2-0.3c0,0,0-0.1,0-0.1
			c0,0-0.1,0-0.1-0.1c-0.1-0.2,0.1-0.5,0-0.8c-0.2-0.9-0.1-1.8-0.1-2.7c0,0-0.2-0.1-0.2-0.2c0-0.1,0-0.3,0-0.4
			c0-0.2,0.1-0.3,0.2-0.4c0,0.1,0.1,0.3,0.1,0.4c0.2,0.6,0.4,1.3,0.7,1.9c0.4,0.7,0.8,1.6,1.6,1.8c0.3,0.1,0.7-0.3,0.7-0.6
			c0.1-0.7-0.5-1.4-0.8-2c-0.3-0.6-0.8-1.1-1.1-1.7c-0.3-0.6-0.4-1.3-0.6-1.9c-0.1-0.3-0.2-0.6-0.3-0.9c0,0,0,0,0,0
			c0-0.1,0-0.1,0-0.2c0,0,0.2,0,0.2,0c0,0,0-0.1,0-0.1c0-0.1-0.2-0.2-0.2-0.2c0.1-0.2,0.4-0.4,0.4-0.6c0.3-0.9,0.6-1.7,1-2.6
			c0-0.1,0.1-0.1,0.1-0.2c0.2,0.7,0.5,1.4,0.7,2c0.3,0.8,0.8,1.6,1.3,2.4c0.2,0.4,0.5,0.7,0.8,1.1c0.3,0.4,0.6,1,1.1,1.1
			c0.5,0.1,1-0.2,0.9-0.8c-0.1-0.5-0.2-1-0.5-1.3c-0.3-0.3-0.6-0.6-0.8-1c-0.5-0.7-0.9-1.3-1.3-2c-0.3-0.8-0.5-1.6-0.8-2.4
			c-0.1-0.3-0.2-0.6-0.3-0.9c0.1-0.1,0.1-0.1,0.2-0.2c0.5-0.7,1.1-1.4,1.6-2.1c0.2-0.3,0.5-0.6,0.7-0.9c0,0.3,0.1,0.7,0.2,1
			c0.2,1,0.3,2.1,0.6,3.1c0.2,0.6,0.5,1.3,0.8,1.9c0.3,0.6,0.9,1.1,1.2,1.6c0.4,0.6,0.6,1.2,1.1,1.8c0.4,0.5,1,0.8,1.5,1.1
			c0.5,0.4,1,0.7,1.5,1c0.4,0.2,0.7-0.2,0.5-0.6c-0.3-0.4-0.5-0.8-0.8-1.2c-0.3-0.4-0.5-0.8-0.8-1.2c-0.3-0.4-0.8-0.7-1-1.1
			c-0.1-0.2-0.1-0.5-0.3-0.7c0,0-0.2,0-0.2-0.1c0,0,0-0.1-0.1-0.1c0,0,0.1-0.1,0.1-0.2c0-0.1-0.2-0.1-0.2-0.2
			c-0.5-0.8-0.9-1.7-1.3-2.6c-0.2-0.4-0.2-1-0.3-1.4c0-0.1-0.3-0.1-0.3-0.1c0,0-0.1,0-0.1-0.1c0-0.1,0.1-0.2,0.1-0.3
			C39.2,33,39,32.8,39,32.5c-0.2-0.8-0.3-1.7-0.5-2.6c0.4-0.5,0.9-1,1.4-1.4c0.4-0.4,0.9-0.8,1.4-1.2c0,0.3,0.1,0.6,0.1,0.8
			c0.1,0.7,0.3,1.5,0.5,2.1c0.3,0.7,0.5,1.3,0.9,1.9c0.2,0.3,0.6,0.5,0.9,0.8c0.3,0.3,0.7,0.6,1.1,0.3c0.1-0.1,0.2-0.1,0.2-0.2
			c0.1-0.1,0.1-0.5,0.1-0.6c0-0.1,0-0.2,0-0.3c-0.1-0.1-0.3-0.2-0.4-0.3c-0.1-0.1,0-0.4,0-0.5c-0.1-0.1-0.1-0.2-0.1-0.3c0,0,0,0,0,0
			c0,0-0.1,0-0.1,0c-0.3-0.5-0.6-1.1-0.8-1.6c-0.2-0.5-0.5-1.1-0.7-1.6c-0.1-0.4-0.3-0.9-0.4-1.3c0.6-0.3,1.2-0.6,1.7-1
			c0.5-0.4,1-0.9,1.6-1.3c0,0.2-0.1,0.4,0,0.7c0,0.8,0.2,1.5,0.4,2.3c0.2,0.7,0.5,1.3,0.9,2c0.3,0.7,0.8,1.6,1.7,1.7
			c0.3,0,0.6,0.1,0.7-0.2c0.2-0.7-0.5-1.4-0.8-2c-0.3-0.6-0.5-1.2-0.7-1.9c-0.2-0.6-0.4-1.2-0.5-1.8c-0.1-0.5-0.2-1-0.2-1.6
			c0.2-0.2,0.5-0.3,0.7-0.5c0.6-0.4,1.3-0.7,1.9-1.2c0.3-0.2,0.6-0.4,0.8-0.6c0,0.3,0.1,0.5,0.1,0.8c0.1,0.7,0.2,1.5,0.4,2.1
			c0.2,0.7,0.5,1.3,0.8,2c0.3,0.7,0.6,1.3,1,1.8c0.4,0.5,0.7,1.3,1.2,1.7c0.3,0.2,0.9,0,0.9-0.4c0-0.3-0.3-0.7-0.4-1
			c-0.2-0.7-0.4-1.3-0.6-2c-0.2-0.6-0.6-1.3-0.8-1.9c-0.3-0.7-0.3-1.5-0.6-2.3c-0.1-0.4-0.2-0.7-0.3-1.1c-0.1-0.3-0.2-0.5-0.3-0.7
			c0.5-0.3,1-0.6,1.5-0.9c0.6-0.4,1.4-0.6,2-0.9c0.1-0.1,0.2-0.1,0.3-0.2c0,0.4,0,0.8,0,1.2c0.1,0.9,0.1,1.8,0.3,2.7
			c0.2,0.9,0.6,1.9,1,2.8c0.4,0.8,1.1,1.5,1.7,2.2c0.3,0.4,0.6,0.8,0.9,1.1c0.2,0.2,0.2,0.5,0.4,0.7c0.2,0.3,0.5,0.3,0.8,0.5
			c0.3,0.1,0.5-0.1,0.4-0.4c-0.1-0.3,0-0.5-0.1-0.8c-0.1-0.2-0.3-0.3-0.5-0.5c-0.2-0.3-0.4-0.7-0.5-1.1c-0.4-0.8-0.8-1.5-1.1-2.4
			c-0.2-0.4-0.1-0.9-0.2-1.3c0,0-0.3,0-0.3,0c0,0,0-0.1,0-0.1c0-0.1-0.1-0.2-0.1-0.4c0-0.1,0.2-0.2,0.2-0.2c0,0-0.3,0.1-0.3,0.1
			c0-0.1,0.2-0.3,0.2-0.4c-0.2-0.8-0.7-1.6-0.9-2.5c-0.1-0.5,0.2-1,0.1-1.5c0-0.3-0.2-0.6-0.4-0.8c0,0,0,0,0,0
			c0.7-0.4,1.3-0.8,2-1.2c0.7-0.4,1.4-0.5,2.1-0.9c-0.1,0.3-0.1,0.6-0.2,0.9C61,16.9,61,18,61.1,19.1c0.1,0.8,0.2,1.6,0.4,2.3
			c0.2,0.8,0.2,1.6,0.5,2.3c0.3,0.7,0.6,1.5,1,2.2c0.4,0.7,0.7,1.4,1.1,2c0.2,0.3,0.5,0.5,0.6,0.8c0.2,0.4,0.3,0.8,0.5,1.1
			c0.3,0.4,1,0,0.8-0.4c-0.1-0.3-0.2-0.6-0.3-0.9c-0.1-0.3-0.3-0.5-0.4-0.8c-0.2-0.6-0.4-1.1-0.6-1.7c-0.2-0.6-0.3-1.3-0.5-1.9
			c-0.1-0.5-0.2-1.1-0.4-1.6c-0.2-1.1-0.7-2.1-0.8-3.2c0-0.2,0.1-0.5,0.1-0.8c0-0.1-0.1-0.1-0.1-0.2c0,0,0,0,0,0
			c0-0.1-0.1-0.3-0.1-0.4c0-0.5,0.1-1,0.1-1.6c0-0.6,0-1.1,0-1.7c0-0.3,0.3-0.8,0.3-1.2c0.6-0.3,1.3-0.6,1.9-0.9
			c-0.1,0.2,0,0.5-0.1,0.7c-0.2,0.9-0.1,1.7-0.1,2.6c0.1,0.9,0.3,1.7,0.5,2.6c0.2,0.8,0.5,1.7,0.7,2.5c0.3,0.8,0.5,1.7,0.8,2.5
			c0.3,0.7,0.4,1.6,0.7,2.3c0.3,0.7,0.8,1.4,1.2,2.1c0.3,0.7,0.6,1.5,0.9,2.2c0.4,0.7,0.7,1.4,1.1,2.1c0.4,0.7,0.9,1.3,1.4,2
			s0.8,1.4,1.2,2c0.4,0.7,1,1.3,1.4,1.9c0.5,0.6,1.1,1.2,1.6,1.8c0.5,0.6,0.9,1.3,1.4,1.9c0.6,0.7,1.1,1.4,1.8,2.1s1.3,1.3,2,1.9
			c0.5,0.5,1,1.1,1.7,1.5c0.6,0.4,1.4,0.6,2.1,0.9C85.3,48.7,84.7,49.2,84.1,49.6z M89.2,46.2c-0.8,0.3-1.6,0.5-2.3,0.4
			c-0.7-0.1-1.4-0.7-2.1-1.1c-0.6-0.4-1.4-0.7-2-1.2c-0.6-0.5-1.1-1.2-1.6-1.8c-0.5-0.6-1-1.2-1.5-1.9c-0.5-0.6-0.9-1.3-1.4-2
			c-0.5-0.7-0.9-1.4-1.3-2c-0.5-0.8-1-1.4-1.4-1.9c-0.3-0.5-0.8-1.2-1.3-2.1c-0.4-0.6-1-1.3-1.5-2c-0.4-0.7-0.8-1.4-1.2-2.2
			c-0.4-0.7-0.6-1.6-1-2.3c-0.4-0.7-0.8-1.5-1.1-2.2c-0.3-0.8-0.8-1.5-1-2.3c-0.3-0.8-0.5-1.6-0.7-2.4c-0.2-0.9-0.2-1.7-0.3-2.5
			c0-0.9-0.2-1.8,0.1-2.5c0.3-0.8,0.9-1.4,1.6-1.9c0.6-0.4,1.4-0.6,2.4-0.7c0.8-0.1,1.6-0.1,2.4,0.1c0.8,0.2,1.5,0.6,2.2,1
			c0.7,0.4,1.3,0.9,1.9,1.4c0.6,0.5,1.2,1,1.8,1.6c0.5,0.6,1,1.2,1.5,1.9c0.5,0.6,1,1.2,1.4,1.9c0.4,0.7,0.6,1.5,1,2.2
			c0.4,0.7,1,1.3,1.3,2c0.4,0.7,0.4,1.6,0.8,2.3c0.3,0.8,0.8,1.4,1.1,2.1c0.3,0.8,0.6,1.6,0.9,2.2c0.3,0.8,0.6,1.7,0.9,2.5
			c0.3,0.8,0.6,1.6,0.9,2.5c0.3,0.8,0.5,1.7,0.7,2.5c0.2,0.8,0.6,1.7,0.7,2.5c0.1,0.8,0.2,1.7,0.2,2.5c0,0.9-0.1,1.8-0.5,2.5
			C90.4,45.7,89.8,46,89.2,46.2z"/>
		<path class="st1" d="M89.6,39.6c0-0.3-0.4-0.5-0.5-0.2c-0.2,0.7-0.5,1.4-0.9,2c-0.3,0.5-0.8,0.7-1.4,0.8c-0.3,0-0.6,0.3-0.8,0.2
			c-0.1,0-0.2-0.1-0.3-0.1c-0.1,0-0.1-0.1-0.1-0.2c0,0-0.1-0.1-0.1-0.1c-0.6-0.4-1.2-0.8-1.8-1.2c-0.3-0.2-0.6-0.5-0.9-0.6
			c-0.8-0.3-1.5,0.6-1.2,1.3c0.4,0.8,1.4,1.2,2.2,1.6c0.6,0.3,1.1,0.7,1.8,0.8c0.7,0.1,1.3-0.1,1.9-0.3c0.7-0.3,1.3-0.8,1.7-1.5
			C89.5,41.3,89.5,40.4,89.6,39.6z"/>
		<path class="st1" d="M84.5,36.9c-0.7,0.2-1.4,0.2-2,0.1c-0.3-0.1-0.4,0.2-0.2,0.3c0.7,0.7,1.8,0.8,2.6,0.3
			C85.4,37.3,85,36.8,84.5,36.9z"/>
		<path class="st1" d="M76.6,16.2c-0.9-0.4-2.1-0.3-2.9,0.1c-0.9,0.4-1.9,1.3-2.2,2.3c-0.1,0.2,0.2,0.4,0.4,0.5
			c0.2,0.1,0.4,0.1,0.6,0c0.3-0.3,0.6-0.5,1-0.8c0.3-0.2,0.5-0.5,0.8-0.6c0.3-0.2,0.6-0.4,1-0.5c0.4-0.1,0.8,0,1.2-0.1
			C76.9,17,77.1,16.4,76.6,16.2z"/>
		<path class="st1" d="M73.1,14.2c-0.6,0-1.2,0.4-1.7,0.7c-0.4,0.2-0.2,0.7,0.2,0.6c0.6-0.1,1.2-0.2,1.7-0.6
			C73.7,14.8,73.6,14.2,73.1,14.2z"/>
		<path class="st1" d="M11.8,61.1c0-0.1-0.2-0.2-0.2-0.3c0-0.1-0.1-0.2-0.2-0.2c0,0,0-0.1,0-0.1c0,0,0.1-0.3,0.1-0.3
			c0-0.1,0.1-0.2,0.1-0.3c0,0-0.2-0.1-0.2-0.1c0,0,0.2,0,0.3-0.1c0-0.1-0.1-0.3-0.1-0.4c0.1-0.2,0.5-0.3,0.8-0.5
			c0.4-0.2,0.7-0.3,1.2-0.4c0.3-0.1,0.2-0.5,0-0.7c-0.5-0.4-1.1-0.5-1.8-0.3c-0.6,0.2-1.4,0.5-1.7,1c-0.4,0.6-0.3,1.5-0.2,2.2
			c0.1,0.7,0.6,1.5,1.4,1.5c0.3,0,0.5,0,0.4-0.4C11.6,61.6,11.8,61.3,11.8,61.1z"/>
	</g>
</g>
</svg>
