<?xml version="1.0" encoding="utf-8"?>
<!-- Generator: Adobe Illustrator 22.1.0, SVG Export Plug-In . SVG Version: 6.00 Build 0)  -->
<svg version="1.1" id="Calque_1" xmlns="http://www.w3.org/2000/svg" xmlns:xlink="http://www.w3.org/1999/xlink" x="0px" y="0px"
	 viewBox="0 0 100 94.5" style="enable-background:new 0 0 100 94.5;" xml:space="preserve">
<style type="text/css">
	.st0{fill:#22292E;}
</style>
<path class="st0" d="M85.2,20.1H14.8C11,20.1,8,23.2,8,26.9v44.2c0,3.8,3.1,6.8,6.8,6.8h70.4c3.8,0,6.8-3.1,6.8-6.8V26.9
	C92,23.1,88.9,20.1,85.2,20.1z M83.9,24.1L54.5,53.5c-1.2,1.2-2.8,1.8-4.5,1.8s-3.3-0.7-4.5-1.8L16.1,24.1H83.9z M14.8,73.9
	c-0.1,0-0.3,0-0.4,0l17.5-17.5c0.8-0.8,0.8-2,0-2.8s-2-0.8-2.8,0L12,70.7V26.9c0-0.4,0.1-0.7,0.2-1.1l0.1,0.1l30.4,30.4
	c1.9,1.9,4.5,3,7.3,3s5.3-1.1,7.3-3l30.4-30.4l0.1-0.1c0.1,0.3,0.2,0.7,0.2,1.1v43.3L71.4,53.6c-0.8-0.8-2-0.8-2.8,0s-0.8,2,0,2.8
	L86,73.8c-0.3,0.1-0.5,0.1-0.8,0.1H14.8z"/>
</svg>
