<svg id="Calque_1" data-name="Calque 1" xmlns="http://www.w3.org/2000/svg" viewBox="0 0 170.93 135.09"><defs><style>.cls-1{fill:#555d61;}</style></defs><title>order</title><path class="cls-1" d="M184.54,151.08H179v-102a13.8,13.8,0,0,0-13.79-13.78H38.42A13.79,13.79,0,0,0,24.64,49.07v102H19.13a2.75,2.75,0,0,0-2.76,2.76v2.75a13.8,13.8,0,0,0,13.78,13.79H173.51a13.81,13.81,0,0,0,13.79-13.79v-2.75A2.75,2.75,0,0,0,184.54,151.08ZM30.15,49.07a8.28,8.28,0,0,1,8.27-8.27H165.24a8.28,8.28,0,0,1,8.27,8.27v102H30.15ZM173.51,164.86H30.15a8.28,8.28,0,0,1-8.27-8.27h159.9A8.28,8.28,0,0,1,173.51,164.86Z" transform="translate(-16.37 -35.29)"/><path class="cls-1" d="M165.24,46.32H38.42a2.75,2.75,0,0,0-2.75,2.75v93.74a2.76,2.76,0,0,0,2.75,2.76H165.24a2.76,2.76,0,0,0,2.76-2.76V49.07A2.75,2.75,0,0,0,165.24,46.32Zm-2.75,93.73H41.18V51.83H162.49Z" transform="translate(-16.37 -35.29)"/><path class="cls-1" d="M84.06,98.41l9.5,4.75v31.38h5.52V60.1a2.77,2.77,0,0,0-2.76-2.76,9.14,9.14,0,0,0-9.08,7.79L82.57,95.52A2.76,2.76,0,0,0,84.06,98.41ZM92.69,66a3.65,3.65,0,0,1,.87-1.87V97l-5.24-2.61Z" transform="translate(-16.37 -35.29)"/><path class="cls-1" d="M57.72,90.43h2.76v44.11H66V90.43h2.76A8.28,8.28,0,0,0,77,82.16V57.34H71.51V73.89H66V57.34H60.48V73.89H55V57.34H49.45V82.16A8.28,8.28,0,0,0,57.72,90.43Zm13.79-11v2.76a2.76,2.76,0,0,1-2.76,2.75h-11A2.75,2.75,0,0,1,55,82.16V79.4Z" transform="translate(-16.37 -35.29)"/><path class="cls-1" d="M149.2,99.91a2.76,2.76,0,0,0-.92-4.51l-19.5-7.8a2.76,2.76,0,0,0-3.58,3.59l7.8,19.49a2.75,2.75,0,0,0,4.51.93l3.9-3.9,9.74,9.75,3.9-3.9-9.75-9.75Zm-12.63,4.84-3.86-9.64L142.35,99Z" transform="translate(-16.37 -35.29)"/><path class="cls-1" d="M129.4,82.16a8.26,8.26,0,0,1,8,6.19L142.75,87a13.79,13.79,0,1,0-20.25,15.4l2.76-4.77a8.27,8.27,0,0,1,4.14-15.43Z" transform="translate(-16.37 -35.29)"/><path class="cls-1" d="M126.3,115.05l.69-5.47A19.3,19.3,0,1,1,148.7,90.43h5.52a24.82,24.82,0,1,0-27.92,24.62Z" transform="translate(-16.37 -35.29)"/><rect class="cls-1" x="102.01" y="85.47" width="5.51" height="5.51"/><rect class="cls-1" x="113.03" y="85.47" width="5.51" height="5.51"/><rect class="cls-1" x="124.06" y="85.47" width="5.51" height="5.51"/></svg>