<?xml version="1.0" encoding="utf-8"?>
<!-- Generator: Adobe Illustrator 22.1.0, SVG Export Plug-In . SVG Version: 6.00 Build 0)  -->
<svg version="1.1" id="Calque_1" xmlns="http://www.w3.org/2000/svg" xmlns:xlink="http://www.w3.org/1999/xlink" x="0px" y="0px"
	 viewBox="0 0 170.9 135.1" style="enable-background:new 0 0 170.9 135.1;" xml:space="preserve">
<style type="text/css">
	.st0{fill:#555D61;}
</style>
<title>order</title>
<path class="st0" d="M168.2,115.8h-5.5v-102c0-7.6-6.2-13.8-13.8-13.8H22C14.4,0,8.3,6.2,8.3,13.8v102H2.8c-1.5,0-2.8,1.2-2.8,2.7
	c0,0,0,0,0,0v2.8c0,7.6,6.2,13.8,13.8,13.8h143.4c7.6,0,13.8-6.2,13.8-13.8v-2.8C170.9,117,169.7,115.8,168.2,115.8
	C168.2,115.8,168.2,115.8,168.2,115.8z M13.8,13.8c0-4.6,3.7-8.3,8.3-8.3h126.8c4.6,0,8.3,3.7,8.3,8.3v102H13.8V13.8z M157.1,129.6
	H13.8c-4.6,0-8.3-3.7-8.3-8.3h159.9C165.4,125.9,161.7,129.6,157.1,129.6z"/>
<path class="st0" d="M148.9,11H22c-1.5,0-2.8,1.2-2.8,2.8v93.7c0,1.5,1.2,2.8,2.8,2.8h126.8c1.5,0,2.8-1.2,2.8-2.8V13.8
	C151.6,12.3,150.4,11,148.9,11C148.9,11,148.9,11,148.9,11z M146.1,104.8H24.8V16.5h121.3V104.8z"/>
<path class="st0" d="M67.7,63.1l9.5,4.8v31.4h5.5V24.8c0-1.5-1.2-2.8-2.8-2.8c-4.5,0-8.4,3.3-9.1,7.8l-4.7,30.4
	C66,61.4,66.6,62.6,67.7,63.1z M76.3,30.7c0.1-0.7,0.4-1.3,0.9-1.9v32.9L72,59.1L76.3,30.7z"/>
<path class="st0" d="M41.3,55.1h2.8v44.1h5.5V55.1h2.8c4.6,0,8.2-3.7,8.2-8.3V22h-5.5v16.5h-5.5V22h-5.5v16.5h-5.5V22h-5.5v24.8
	C33.1,51.4,36.8,55.1,41.3,55.1z M55.1,44.1v2.8c0,1.5-1.2,2.8-2.8,2.8h-11c-1.5,0-2.8-1.2-2.8-2.7c0,0,0,0,0,0v-2.8L55.1,44.1z"/>
<path class="st0" d="M132.8,64.6c1.1-1.1,1.1-2.8,0-3.9c-0.3-0.3-0.6-0.5-0.9-0.6l-19.5-7.8c-1.4-0.6-3,0.1-3.6,1.5
	c-0.3,0.7-0.3,1.4,0,2l7.8,19.5c0.6,1.4,2.2,2.1,3.6,1.6c0.4-0.1,0.7-0.4,0.9-0.6l3.9-3.9l9.7,9.8l3.9-3.9l-9.8-9.8L132.8,64.6z
	 M120.2,69.5l-3.9-9.6l9.6,3.9L120.2,69.5z"/>
<path class="st0" d="M113,46.9c3.8,0,7.1,2.5,8,6.2l5.4-1.4c-1.9-7.4-9.4-11.8-16.8-9.9c-7.4,1.9-11.8,9.4-9.9,16.8
	c0.9,3.6,3.2,6.6,6.4,8.5l2.8-4.8c-4-2.3-5.3-7.3-3-11.3C107.3,48.5,110.1,46.9,113,46.9L113,46.9z"/>
<path class="st0" d="M109.9,79.8l0.7-5.5C100,73,92.6,63.3,93.9,52.7s11-18.1,21.6-16.7c9.7,1.2,16.9,9.4,16.9,19.1h5.5
	c0-13.7-11.1-24.8-24.8-24.8c-13.7,0-24.8,11.1-24.8,24.8C88.2,67.6,97.5,78.2,109.9,79.8z"/>
<rect x="102" y="85.5" class="st0" width="5.5" height="5.5"/>
<rect x="113" y="85.5" class="st0" width="5.5" height="5.5"/>
<rect x="124.1" y="85.5" class="st0" width="5.5" height="5.5"/>
</svg>
