<?xml version="1.0" encoding="utf-8"?>
<!-- Generator: Adobe Illustrator 22.1.0, SVG Export Plug-In . SVG Version: 6.00 Build 0)  -->
<svg version="1.1" id="Calque_1" xmlns="http://www.w3.org/2000/svg" xmlns:xlink="http://www.w3.org/1999/xlink" x="0px" y="0px"
	 viewBox="0 0 80 79" style="enable-background:new 0 0 80 79;" xml:space="preserve">
<style type="text/css">
	.st0{fill:#22292E;}
</style>
<title>31_BO_phone</title>
<g>
	<path class="st0" d="M27.4,69h25.1c3,0,5.4-2.4,5.4-5.4l0,0V14.4c0-3-2.4-5.4-5.4-5.4H27.4c-3,0-5.4,2.4-5.4,5.4v49.1
		C22,66.6,24.4,69,27.4,69L27.4,69z M55,56H25V19.8h30V56z M52.6,66H27.4c-1.3,0-2.4-1.1-2.4-2.4l0,0V59h30v4.6
		C55,64.9,53.9,66,52.6,66L52.6,66z M27.4,12h25.1c1.3,0,2.4,1.1,2.4,2.4v2.3H25v-2.3C25,13.1,26.1,12,27.4,12z"/>
	<path class="st0" d="M31.7,41.1c0.6,0.6,1.5,0.6,2.1,0l10-10c0.6-0.6,0.6-1.5,0.1-2.1s-1.5-0.6-2.1-0.1c0,0-0.1,0-0.1,0.1l-10,10
		C31.1,39.5,31.1,40.5,31.7,41.1z"/>
	<path class="st0" d="M29.7,34.1c0.6,0.6,1.5,0.6,2.1,0l7.2-7.2c0.5-0.7,0.4-1.6-0.3-2.1c-0.5-0.4-1.3-0.4-1.8,0l-7.2,7.2
		C29.2,32.5,29.1,33.5,29.7,34.1z"/>
	<circle class="st0" cx="40" cy="62.2" r="2.5"/>
</g>
</svg>
