<?xml version="1.0" encoding="utf-8"?>
<!-- Generator: Adobe Illustrator 22.1.0, SVG Export Plug-In . SVG Version: 6.00 Build 0)  -->
<svg version="1.1" id="Calque_1" xmlns="http://www.w3.org/2000/svg" xmlns:xlink="http://www.w3.org/1999/xlink" x="0px" y="0px"
	 viewBox="0 0 100 82.5" style="enable-background:new 0 0 100 82.5;" xml:space="preserve">
<style type="text/css">
	.st0{fill:#53E093;}
</style>
<g>
	<rect x="72" y="39.1" class="st0" width="1.4" height="1.7"/>
	<path class="st0" d="M76.4,32.7l3.3-3.7c0.6-0.6,0.9-1.5,0.9-2.3c0-1.2-0.6-2.3-1.6-2.9c-0.9-0.5-1.9-0.6-2.8-0.2
		c-0.2,0.1-0.3,0.1-0.4,0.2c-0.2-0.5-0.4-0.9-0.8-1.3c-0.6-0.6-1.4-1-2.3-1c0,0,0,0,0,0c-1,0-1.9,0.5-2.5,1.3
		c-0.2,0.3-0.4,0.7-0.6,1c-0.1-0.1-0.2-0.1-0.4-0.2c-0.9-0.4-2-0.3-2.8,0.2c-1,0.6-1.6,1.7-1.6,2.9c0,0.9,0.3,1.7,0.9,2.3l3.4,3.6
		c-2.6,1.6-4.1,4.7-3.6,7.9l0.2,1.4l1.7-0.3l-0.2-1.4c-0.4-2.8,1.1-5.6,3.6-6.6l0,0c0.4-0.2,0.9-0.3,1.4-0.3l0.1,0l0,0
		c0.2,0,0.3,0,0.5,0c0.1,0,0.3,0,0.4,0c0,0,0.1,0,0.1,0c0.5,0,0.9,0.2,1.4,0.3c2.2,0.8,3.7,2.9,3.8,5.3h-4.4v1.7h4.3l-0.7,5h-5v1.7
		h4.7l-0.7,4.9h-4v1.7h3.8l-0.7,5h-3v1.7h2.8l-1.4,9.7c-0.1,0.7-0.6,1.1-1.2,1.1c0,0,0,0,0,0c-0.6,0-1.1-0.5-1.2-1.1l-4-26.2
		L66,44.5l4,26.2c0.2,1.5,1.4,2.6,2.9,2.6c0,0,0,0,0,0c1.5,0,2.7-1.1,2.9-2.6l4.3-30c0.1-0.4,0.1-0.8,0.1-1.2
		C80.2,36.6,78.7,34.1,76.4,32.7z M76.9,25.2c0.4-0.2,0.9-0.1,1.3,0.1c0.5,0.3,0.8,0.8,0.8,1.5c0,0.4-0.2,0.9-0.4,1.2L74.8,32
		c-0.1,0-0.2-0.1-0.3-0.1l0.5-2.4l0.9-3.3C76.1,25.8,76.4,25.4,76.9,25.2z M71.5,23.9c0.3-0.4,0.7-0.6,1.2-0.6c0,0,0,0,0,0
		c0.4,0,0.8,0.2,1.1,0.5c0.3,0.3,0.5,0.7,0.5,1.2c0,0.1,0,0.3,0,0.4l-0.9,3.8l-0.6,2.2L72,28.7l-0.8-3.4
		C71.1,24.8,71.2,24.3,71.5,23.9z M70.7,32.1L67,28c-0.3-0.3-0.5-0.7-0.5-1.2c0-0.6,0.3-1.2,0.8-1.5c0.2-0.1,0.5-0.2,0.8-0.2
		c0.2,0,0.4,0,0.5,0.1c0.5,0.2,0.8,0.6,1,1.1l0.8,2.8l0.7,2.8C71,32,70.8,32,70.7,32.1z"/>
</g>
<g>
	<path class="st0" d="M37.1,46.5L37.1,46.5C37.1,46.5,37.1,46.5,37.1,46.5c-0.1-1-0.1-2-0.2-3c-0.1-2.2,0.1-4.4,0.6-6.5l0.2-1h-1
		c-0.5,0-1.8,0.1-2.9,1.2c-0.1,0.1-0.3,0.3-0.4,0.4c-0.1-0.1-0.2-0.3-0.4-0.4c-1.1-1.1-2.4-1.2-2.9-1.2h-1l0.2,1
		c0.4,2.1,0.6,4.3,0.6,6.5c0,1-0.1,1.9-0.2,2.9l0,0.1c-4.5,2.6-11.6,7.5-11.6,12.5c0,6.3,5.6,11.6,12.9,12.6c0,0,0,0,0,0
		c0,1.4,1.2,2.6,2.6,2.6c1.4,0,2.6-1.2,2.6-2.6c0,0,0,0,0,0c3.2-0.4,6-1.6,8.1-3.4L42.9,67c-1,0.9-2.2,1.6-3.5,2.1
		c2.4-2.5,3.9-6.3,3.9-10.6c0-2.7-0.9-5.1-2.2-7.2c3.2,2.4,5.9,5.2,5.9,7.8c0,2.4-0.9,4.7-2.7,6.6l1.3,1.1c2.1-2.2,3.1-4.9,3.1-7.8
		C48.8,54.1,41.5,49.1,37.1,46.5z M33.3,70.2c-1,0-3-4.1-3-11.7c0-5.9,2.2-10.5,3.1-11.6c1,1.1,3,5.8,3,11.6
		C36.4,66.1,34.4,70.2,33.3,70.2z M30.7,48.1c-0.2,0.4-0.3,0.8-0.5,1.2c-0.6,1.6-1.7,5-1.7,9.2c0,4.2,0.7,8.5,1.9,11.1
		c-3.2-1.6-5.6-6-5.6-11.1C25,54,28.2,50.1,30.7,48.1z M34.9,38.5c0.2-0.2,0.5-0.4,0.7-0.5c-0.3,1.9-0.4,3.7-0.4,5.6
		c0,0.6,0.1,1.3,0.1,1.9c-0.5-0.3-0.9-0.5-1.1-0.6v-4.7C34.2,39.6,34.4,38.9,34.9,38.5z M31.1,38c0.2,0.1,0.5,0.3,0.7,0.5
		c0.5,0.5,0.7,1.1,0.7,1.7V45c-0.3,0.1-0.7,0.3-1.1,0.6c0.1-0.6,0.1-1.3,0.1-1.9C31.5,41.7,31.4,39.9,31.1,38z M19.6,59.1
		c0-2.6,2.8-5.5,6-7.9c-1.4,2.1-2.3,4.6-2.3,7.3c0,4.3,1.5,8.1,3.8,10.5C22.6,67.1,19.6,63.4,19.6,59.1z M33.3,72.6
		c-0.4,0-0.8-0.3-0.9-0.7c0.3,0,0.6,0,0.9,0c0.3,0,0.6,0,0.9,0C34.1,72.3,33.8,72.6,33.3,72.6z M36.1,69.5c1.3-2.6,1.9-6.8,1.9-11.1
		c0-4.2-1-7.6-1.6-9.2c-0.1-0.4-0.3-0.8-0.5-1.2c0.7,0.5,1.5,1.2,2.3,2.1c1.3,1.5,3.5,4.6,3.5,8.3C41.7,63.5,39.4,67.9,36.1,69.5z"
		/>
</g>
<g>
	<path class="st0" d="M66.9,12c0.8-2.1-0.3-4.4-2.4-5.2l-1-0.4l-4.3,11.7v-5.7c0-2.2-1.8-4.1-4.1-4.1h-1.1v13.4l-1.7-6.5
		c-0.3-1.1-0.9-1.9-1.9-2.5c-0.9-0.6-2-0.7-3.1-0.4l-1.1,0.3l7.5,29.4L52.7,65l0,0c0,1.5,0.5,2.9,1.4,3.8c-0.1,0.3-0.2,0.6-0.2,0.9
		c0,1.5,1.2,2.8,2.8,2.8s2.8-1.2,2.8-2.8c0-0.3-0.1-0.6-0.2-0.9c0.9-1,1.4-2.3,1.4-3.8l-1.1-20.6l-1.7,0.1l1.1,20.5c0,1-0.3,2-1,2.7
		c-0.3,0.3-0.7,0.6-1.3,0.6c-0.6,0-1.1-0.3-1.3-0.6c-0.6-0.6-1-1.6-1-2.7l1.4-25.6h1.8l0.1,2.1l1.7-0.1l-0.2-3.2v-5L66.9,12z
		 M64.5,8.7c0.9,0.6,1.2,1.7,0.9,2.8l-6.1,16.8v-5.2L64.5,8.7z M57.5,12.4v25.4h-1.8V10.1C56.8,10.4,57.5,11.3,57.5,12.4z
		 M49.6,14.2c0.5,0.3,0.9,0.8,1.1,1.5l3.3,12.9v7.1l-5.6-21.8C48.9,13.9,49.3,14,49.6,14.2z M57.7,69.9c-0.1,0.5-0.5,0.9-1.1,0.9
		c-0.5,0-1-0.4-1.1-0.9c0.3,0.1,0.7,0.2,1.1,0.2C57,70.1,57.3,70,57.7,69.9z"/>
</g>
<g>
	<path class="st0" d="M31.7,11.3c-2.8-0.9-5.8,0.5-7.1,3.1l-1.2,2.5c-0.4,0.8-0.4,1.7,0,2.5c0.3,0.8,1,1.4,1.8,1.6l0.5,0.2l-0.9,3
		c-0.1,0.4-0.1,0.8,0.1,1.1c0.2,0.3,0.5,0.6,0.9,0.7l2.3,0.7l0,0c0.1,0,0.3,0.1,0.4,0.1c0.6,0,1.2-0.4,1.4-1l0.9-3l0.5,0.2l0,0
		c0.3,0.1,0.6,0.1,0.9,0.1c0.5,0,1-0.1,1.5-0.4c0.7-0.4,1.2-1.1,1.4-1.9l0.6-2.6C36.4,15.2,34.6,12.2,31.7,11.3z M28.3,25.1
		l-1.8-0.6l0.9-2.8l0.5,0.2l1.3,0.4L28.3,25.1z M34,17.8l-0.6,2.6c-0.1,0.4-0.3,0.7-0.6,0.8c-0.3,0.2-0.7,0.2-1,0.1l0,0l-1.9-0.6
		c0,0,0,0,0,0l-1.4-0.4l-2.8-0.9c-0.4-0.1-0.6-0.4-0.8-0.7c-0.2-0.3-0.1-0.7,0-1.1l1.2-2.5c0.9-1.9,3-2.8,5-2.2
		C33.3,13.6,34.5,15.7,34,17.8z"/>
</g>
<g>
	<path class="st0" d="M45.8,23.4C44.2,21,41,20,38.4,21.2l-2.6,1.1c-0.8,0.4-1.4,1-1.6,1.9c-0.2,0.8-0.1,1.7,0.3,2.4l0.3,0.5
		l-2.7,1.7c-0.7,0.4-0.9,1.3-0.5,2l1.3,2c0.2,0.3,0.5,0.6,0.9,0.6c0.1,0,0.2,0,0.3,0c0.3,0,0.5-0.1,0.8-0.2l2.7-1.7l0.3,0.5
		c0.4,0.7,1.2,1.2,2,1.3c0.2,0,0.3,0,0.5,0c0.6,0,1.3-0.2,1.8-0.6l2.1-1.6C46.8,29.4,47.4,26,45.8,23.4z M34.3,31.7l-1-1.6l2.5-1.5
		l1,1.6L34.3,31.7z M43.3,29.9l-2.1,1.6c-0.3,0.2-0.6,0.3-1,0.2c-0.4-0.1-0.7-0.3-0.9-0.6l-1.1-1.7c0,0,0,0,0,0l-0.4-0.6l-2-3.1
		c-0.2-0.3-0.3-0.7-0.1-1.1c0.1-0.4,0.4-0.6,0.7-0.8l2.6-1.1c1.9-0.8,4.1-0.2,5.2,1.6C45.5,26.2,45,28.6,43.3,29.9z"/>
</g>
</svg>
