<svg id="Calque_1" data-name="Calque 1" xmlns="http://www.w3.org/2000/svg" viewBox="0 0 178.22 140.86"><defs><style>.cls-1{fill:#555d61;}</style></defs><title>savor</title><path class="cls-1" d="M53,86V57.22a8.59,8.59,0,0,0-14.38-6.38,8.5,8.5,0,0,0-11.5,0,8.59,8.59,0,0,0-14.37,6.38V86a8.63,8.63,0,0,0,8.62,8.62h2.88v71.87a8.63,8.63,0,0,0,17.25,0V94.59h2.87A8.63,8.63,0,0,0,53,86Zm-5.75,0a2.88,2.88,0,0,1-2.88,2.88H38.59a2.87,2.87,0,0,0-2.87,2.87v74.74a2.88,2.88,0,0,1-5.75,0V91.72a2.87,2.87,0,0,0-2.88-2.87H21.34A2.88,2.88,0,0,1,18.47,86V57.22a2.88,2.88,0,0,1,5.75,0v23H30v-23a2.88,2.88,0,0,1,5.75,0v23h5.75v-23a2.88,2.88,0,0,1,5.75,0Z" transform="translate(-12.72 -34.23)"/><path class="cls-1" d="M188.07,48.6a16.64,16.64,0,0,0-16.38,13.68l-9.44,51.92a2.88,2.88,0,0,0,1.54,3.09l9.91,5v44.21a8.63,8.63,0,0,0,17.25,0v-115A2.88,2.88,0,0,0,188.07,48.6ZM185.2,166.46a2.88,2.88,0,0,1-5.75,0v-46a2.9,2.9,0,0,0-1.59-2.58l-9.57-4.78,9.05-49.81a10.9,10.9,0,0,1,7.85-8.56V166.46Z" transform="translate(-12.72 -34.23)"/><path class="cls-1" d="M117.64,63c-13,0-25.11,5.28-32.32,14.11a63.87,63.87,0,0,1-21.6,16.7C54,98.58,48,106.33,47.34,114.72h-.12V133.4c0,15.06,17.4,27.31,38.8,27.31,11.58,0,22.46-3.56,29.83-9.78a63.12,63.12,0,0,1,18.4-10.52c13.49-5.19,22.2-16.4,22.2-28.57V91.72h-.18C154.48,75.63,137.85,63,117.64,63Zm-51.39,36A69.45,69.45,0,0,0,89.78,80.71c6.12-7.51,16.54-12,27.86-12,18.23,0,33.06,11.61,33.06,25.87,0,9.77-7.27,18.88-18.51,23.21a68.91,68.91,0,0,0-20,11.48c-6.35,5.36-15.87,8.43-26.12,8.43-18.22,0-33-9.67-33-21.56C53,109.46,57.93,103,66.25,98.93Zm84.45,12.91c0,9.77-7.27,18.87-18.51,23.2a68.92,68.92,0,0,0-20,11.49C105.79,151.89,96.27,155,86,155c-18.22,0-33-9.67-33-21.56v-3C59.8,138.21,72,143.46,86,143.46c11.58,0,22.46-3.56,29.83-9.78a63.12,63.12,0,0,1,18.4-10.52,37,37,0,0,0,16.45-12.07Z" transform="translate(-12.72 -34.23)"/><path class="cls-1" d="M119.08,97.47A11.5,11.5,0,1,0,107.58,86,11.51,11.51,0,0,0,119.08,97.47Zm0-17.25A5.75,5.75,0,1,1,113.33,86,5.76,5.76,0,0,1,119.08,80.22Z" transform="translate(-12.72 -34.23)"/><rect class="cls-1" x="54.62" y="74.74" width="57.49" height="5.75"/><rect class="cls-1" x="68.99" y="63.24" width="23" height="5.75"/><rect class="cls-1" x="51.74" y="86.24" width="43.12" height="5.75"/><path class="cls-1" d="M76,51.48a2.88,2.88,0,0,1,2.88-2.88H90.33A8.64,8.64,0,0,0,99,40V34.23H93.21V40a2.88,2.88,0,0,1-2.88,2.87H78.84a8.64,8.64,0,0,0-8.63,8.63v5.74H76Z" transform="translate(-12.72 -34.23)"/><path class="cls-1" d="M107.58,51.48a2.88,2.88,0,0,1,2.88-2.88H122A8.63,8.63,0,0,0,130.58,40V34.23h-5.75V40A2.88,2.88,0,0,1,122,42.85h-11.5a8.64,8.64,0,0,0-8.63,8.63v5.74h5.75Z" transform="translate(-12.72 -34.23)"/><path class="cls-1" d="M156.45,40a2.88,2.88,0,0,1-2.87,2.87h-11.5a8.64,8.64,0,0,0-8.63,8.63v5.74h5.75V51.48a2.88,2.88,0,0,1,2.88-2.88h11.5A8.63,8.63,0,0,0,162.2,40V34.23h-5.75Z" transform="translate(-12.72 -34.23)"/></svg>