<?xml version="1.0" encoding="utf-8"?>
<!-- Generator: Adobe Illustrator 22.1.0, SVG Export Plug-In . SVG Version: 6.00 Build 0)  -->
<svg version="1.1" id="Calque_1" xmlns="http://www.w3.org/2000/svg" xmlns:xlink="http://www.w3.org/1999/xlink" x="0px" y="0px"
	 viewBox="0 0 100 100" style="enable-background:new 0 0 100 100;" xml:space="preserve">
<style type="text/css">
	.st0{fill:#FFFFFF;}
</style>
<g transform="translate(0,-952.36218)">
	<path class="st0" d="M42.1,962.1c-18.5,0-33.6,15.1-33.6,33.6c0,18.5,15.1,33.6,33.6,33.6c7.7,0,14.8-2.6,20.5-7l23,23.1
		c1.7,1.7,4.5,1.7,6.2,0c1.7-1.7,1.7-4.4,0-6.1l-23.1-23.1c4.4-5.7,7-12.8,7-20.4C75.7,977.2,60.6,962.1,42.1,962.1L42.1,962.1z
		 M42.1,970.8c13.8,0,24.9,11.1,24.9,24.9c0,13.8-11.1,24.9-24.9,24.9c-13.8,0-24.9-11.1-24.9-24.9
		C17.2,981.9,28.3,970.8,42.1,970.8z"/>
</g>
</svg>
